<svg width="1200" height="400" viewBox="0 0 1200 400" fill="none" xmlns="http://www.w3.org/2000/svg">
<mask id="mask0_2027_8959" style="mask-type:alpha" maskUnits="userSpaceOnUse" x="0" y="0" width="1200" height="400">
<rect width="1200" height="400" fill="white"/>
</mask>
<g mask="url(#mask0_2027_8959)">
<g clip-path="url(#clip0_2027_8959)">
<rect x="-33.4384" y="-37.5913" width="74.8237" height="74.8237" stroke="#E8ECEF" stroke-width="1.49647"/>
<rect x="41.3854" y="-37.5913" width="74.8237" height="74.8237" stroke="#E8ECEF" stroke-width="1.49647"/>
<rect x="116.209" y="-37.5913" width="74.8237" height="74.8237" stroke="#E8ECEF" stroke-width="1.49647"/>
<rect x="191.033" y="-37.5913" width="74.8237" height="74.8237" stroke="#E8ECEF" stroke-width="1.49647"/>
<rect x="265.857" y="-37.5913" width="74.8237" height="74.8237" stroke="#E8ECEF" stroke-width="1.49647"/>
<rect x="340.68" y="-37.5913" width="74.8237" height="74.8237" stroke="#E8ECEF" stroke-width="1.49647"/>
<rect x="415.504" y="-37.5913" width="74.8237" height="74.8237" stroke="#E8ECEF" stroke-width="1.49647"/>
<rect x="490.328" y="-37.5913" width="74.8237" height="74.8237" stroke="#E8ECEF" stroke-width="1.49647"/>
<rect x="565.152" y="-37.5913" width="74.8237" height="74.8237" stroke="#E8ECEF" stroke-width="1.49647"/>
<rect x="639.975" y="-37.5913" width="74.8237" height="74.8237" stroke="#E8ECEF" stroke-width="1.49647"/>
<rect x="714.799" y="-37.5913" width="74.8237" height="74.8237" stroke="#E8ECEF" stroke-width="1.49647"/>
<rect x="789.623" y="-37.5913" width="74.8237" height="74.8237" stroke="#E8ECEF" stroke-width="1.49647"/>
<rect x="864.447" y="-37.5913" width="74.8237" height="74.8237" stroke="#E8ECEF" stroke-width="1.49647"/>
<rect x="939.27" y="-37.5913" width="74.8237" height="74.8237" stroke="#E8ECEF" stroke-width="1.49647"/>
<rect x="1014.09" y="-37.5913" width="74.8237" height="74.8237" stroke="#E8ECEF" stroke-width="1.49647"/>
<rect x="1088.92" y="-37.5913" width="74.8237" height="74.8237" stroke="#E8ECEF" stroke-width="1.49647"/>
<rect x="1163.74" y="-37.5913" width="74.8237" height="74.8237" stroke="#E8ECEF" stroke-width="1.49647"/>
<rect x="-33.4384" y="37.2297" width="74.8237" height="74.8237" stroke="#E8ECEF" stroke-width="1.49647"/>
<rect x="41.3854" y="37.2297" width="74.8237" height="74.8237" stroke="#E8ECEF" stroke-width="1.49647"/>
<rect x="116.209" y="37.2297" width="74.8237" height="74.8237" stroke="#E8ECEF" stroke-width="1.49647"/>
<rect x="191.033" y="37.2297" width="74.8237" height="74.8237" stroke="#E8ECEF" stroke-width="1.49647"/>
<rect x="265.857" y="37.2297" width="74.8237" height="74.8237" stroke="#E8ECEF" stroke-width="1.49647"/>
<rect x="340.68" y="37.2297" width="74.8237" height="74.8237" stroke="#E8ECEF" stroke-width="1.49647"/>
<rect x="415.504" y="37.2297" width="74.8237" height="74.8237" stroke="#E8ECEF" stroke-width="1.49647"/>
<rect x="490.328" y="37.2297" width="74.8237" height="74.8237" stroke="#E8ECEF" stroke-width="1.49647"/>
<rect x="565.152" y="37.2297" width="74.8237" height="74.8237" stroke="#E8ECEF" stroke-width="1.49647"/>
<rect x="639.975" y="37.2297" width="74.8237" height="74.8237" stroke="#E8ECEF" stroke-width="1.49647"/>
<rect x="714.799" y="37.2297" width="74.8237" height="74.8237" stroke="#E8ECEF" stroke-width="1.49647"/>
<rect x="789.623" y="37.2297" width="74.8237" height="74.8237" stroke="#E8ECEF" stroke-width="1.49647"/>
<rect x="864.447" y="37.2297" width="74.8237" height="74.8237" stroke="#E8ECEF" stroke-width="1.49647"/>
<rect x="939.27" y="37.2297" width="74.8237" height="74.8237" stroke="#E8ECEF" stroke-width="1.49647"/>
<rect x="1014.09" y="37.2297" width="74.8237" height="74.8237" stroke="#E8ECEF" stroke-width="1.49647"/>
<rect x="1088.92" y="37.2297" width="74.8237" height="74.8237" stroke="#E8ECEF" stroke-width="1.49647"/>
<rect x="1163.74" y="37.2297" width="74.8237" height="74.8237" stroke="#E8ECEF" stroke-width="1.49647"/>
<rect x="-33.4384" y="112.053" width="74.8237" height="74.8237" stroke="#E8ECEF" stroke-width="1.49647"/>
<rect x="41.3854" y="112.053" width="74.8237" height="74.8237" stroke="#E8ECEF" stroke-width="1.49647"/>
<rect x="116.209" y="112.053" width="74.8237" height="74.8237" stroke="#E8ECEF" stroke-width="1.49647"/>
<rect x="191.033" y="112.053" width="74.8237" height="74.8237" stroke="#E8ECEF" stroke-width="1.49647"/>
<rect x="265.857" y="112.053" width="74.8237" height="74.8237" stroke="#E8ECEF" stroke-width="1.49647"/>
<rect x="340.68" y="112.053" width="74.8237" height="74.8237" stroke="#E8ECEF" stroke-width="1.49647"/>
<rect x="415.504" y="112.053" width="74.8237" height="74.8237" stroke="#E8ECEF" stroke-width="1.49647"/>
<rect x="490.328" y="112.053" width="74.8237" height="74.8237" stroke="#E8ECEF" stroke-width="1.49647"/>
<rect x="565.152" y="112.053" width="74.8237" height="74.8237" fill="#E8ECEF" stroke="#E8ECEF" stroke-width="1.49647"/>
<rect x="639.975" y="112.053" width="74.8237" height="74.8237" stroke="#E8ECEF" stroke-width="1.49647"/>
<rect x="714.799" y="112.053" width="74.8237" height="74.8237" stroke="#E8ECEF" stroke-width="1.49647"/>
<rect x="789.623" y="112.053" width="74.8237" height="74.8237" stroke="#E8ECEF" stroke-width="1.49647"/>
<rect x="864.447" y="112.053" width="74.8237" height="74.8237" stroke="#E8ECEF" stroke-width="1.49647"/>
<rect x="939.27" y="112.053" width="74.8237" height="74.8237" fill="#E8ECEF" stroke="#E8ECEF" stroke-width="1.49647"/>
<rect x="1014.09" y="112.053" width="74.8237" height="74.8237" stroke="#E8ECEF" stroke-width="1.49647"/>
<rect x="1088.92" y="112.053" width="74.8237" height="74.8237" stroke="#E8ECEF" stroke-width="1.49647"/>
<rect x="1163.74" y="112.053" width="74.8237" height="74.8237" stroke="#E8ECEF" stroke-width="1.49647"/>
<rect x="-33.8049" y="187.16" width="74.8237" height="74.8237" stroke="#E8ECEF" stroke-width="1.49647"/>
<rect x="41.0188" y="187.16" width="74.8237" height="74.8237" stroke="#E8ECEF" stroke-width="1.49647"/>
<rect x="115.843" y="187.16" width="74.8237" height="74.8237" stroke="#E8ECEF" stroke-width="1.49647"/>
<rect x="190.666" y="187.16" width="74.8237" height="74.8237" stroke="#E8ECEF" stroke-width="1.49647"/>
<rect x="265.49" y="187.16" width="74.8237" height="74.8237" stroke="#E8ECEF" stroke-width="1.49647"/>
<rect x="340.314" y="187.16" width="74.8237" height="74.8237" stroke="#E8ECEF" stroke-width="1.49647"/>
<rect x="415.137" y="187.16" width="74.8237" height="74.8237" stroke="#E8ECEF" stroke-width="1.49647"/>
<rect x="489.961" y="187.16" width="74.8237" height="74.8237" stroke="#E8ECEF" stroke-width="1.49647"/>
<rect x="564.785" y="187.16" width="74.8237" height="74.8237" stroke="#E8ECEF" stroke-width="1.49647"/>
<rect x="639.609" y="187.16" width="74.8237" height="74.8237" stroke="#E8ECEF" stroke-width="1.49647"/>
<rect x="714.432" y="187.16" width="74.8237" height="74.8237" stroke="#E8ECEF" stroke-width="1.49647"/>
<rect x="789.256" y="187.16" width="74.8237" height="74.8237" stroke="#E8ECEF" stroke-width="1.49647"/>
<rect x="864.08" y="187.16" width="74.8237" height="74.8237" stroke="#E8ECEF" stroke-width="1.49647"/>
<rect x="938.904" y="187.16" width="74.8237" height="74.8237" stroke="#E8ECEF" stroke-width="1.49647"/>
<rect x="1013.73" y="187.16" width="74.8237" height="74.8237" stroke="#E8ECEF" stroke-width="1.49647"/>
<rect x="1088.55" y="187.16" width="74.8237" height="74.8237" stroke="#E8ECEF" stroke-width="1.49647"/>
<rect x="1163.37" y="187.16" width="74.8237" height="74.8237" stroke="#E8ECEF" stroke-width="1.49647"/>
<rect x="-33.4384" y="261.701" width="74.8237" height="74.8237" stroke="#E8ECEF" stroke-width="1.49647"/>
<rect x="41.3854" y="261.701" width="74.8237" height="74.8237" stroke="#E8ECEF" stroke-width="1.49647"/>
<rect x="116.209" y="261.701" width="74.8237" height="74.8237" stroke="#E8ECEF" stroke-width="1.49647"/>
<rect x="191.033" y="261.701" width="74.8237" height="74.8237" stroke="#E8ECEF" stroke-width="1.49647"/>
<rect x="265.857" y="261.701" width="74.8237" height="74.8237" stroke="#E8ECEF" stroke-width="1.49647"/>
<rect x="340.68" y="261.701" width="74.8237" height="74.8237" stroke="#E8ECEF" stroke-width="1.49647"/>
<rect x="415.504" y="261.701" width="74.8237" height="74.8237" stroke="#E8ECEF" stroke-width="1.49647"/>
<rect x="490.328" y="261.701" width="74.8237" height="74.8237" stroke="#E8ECEF" stroke-width="1.49647"/>
<rect x="565.152" y="261.701" width="74.8237" height="74.8237" stroke="#E8ECEF" stroke-width="1.49647"/>
<rect x="639.975" y="261.701" width="74.8237" height="74.8237" stroke="#E8ECEF" stroke-width="1.49647"/>
<rect x="714.799" y="261.701" width="74.8237" height="74.8237" stroke="#E8ECEF" stroke-width="1.49647"/>
<rect x="789.623" y="261.701" width="74.8237" height="74.8237" stroke="#E8ECEF" stroke-width="1.49647"/>
<rect x="864.447" y="261.701" width="74.8237" height="74.8237" stroke="#E8ECEF" stroke-width="1.49647"/>
<rect x="939.27" y="261.701" width="74.8237" height="74.8237" stroke="#E8ECEF" stroke-width="1.49647"/>
<rect x="1014.09" y="261.701" width="74.8237" height="74.8237" stroke="#E8ECEF" stroke-width="1.49647"/>
<rect x="1088.92" y="261.701" width="74.8237" height="74.8237" fill="#E8ECEF" stroke="#E8ECEF" stroke-width="1.49647"/>
<rect x="1163.74" y="261.701" width="74.8237" height="74.8237" stroke="#E8ECEF" stroke-width="1.49647"/>
<rect x="-33.4384" y="336.526" width="74.8237" height="74.8237" stroke="#E8ECEF" stroke-width="1.49647"/>
<rect x="41.3854" y="336.526" width="74.8237" height="74.8237" stroke="#E8ECEF" stroke-width="1.49647"/>
<rect x="116.209" y="336.526" width="74.8237" height="74.8237" stroke="#E8ECEF" stroke-width="1.49647"/>
<rect x="191.033" y="336.526" width="74.8237" height="74.8237" stroke="#E8ECEF" stroke-width="1.49647"/>
<rect x="265.857" y="336.526" width="74.8237" height="74.8237" stroke="#E8ECEF" stroke-width="1.49647"/>
<rect x="340.68" y="336.526" width="74.8237" height="74.8237" stroke="#E8ECEF" stroke-width="1.49647"/>
<rect x="415.504" y="336.526" width="74.8237" height="74.8237" stroke="#E8ECEF" stroke-width="1.49647"/>
<rect x="490.328" y="336.526" width="74.8237" height="74.8237" stroke="#E8ECEF" stroke-width="1.49647"/>
<rect x="565.152" y="336.526" width="74.8237" height="74.8237" stroke="#E8ECEF" stroke-width="1.49647"/>
<rect x="639.975" y="336.526" width="74.8237" height="74.8237" stroke="#E8ECEF" stroke-width="1.49647"/>
<rect x="714.799" y="336.526" width="74.8237" height="74.8237" stroke="#E8ECEF" stroke-width="1.49647"/>
<rect x="789.623" y="336.526" width="74.8237" height="74.8237" stroke="#E8ECEF" stroke-width="1.49647"/>
<rect x="864.447" y="336.526" width="74.8237" height="74.8237" stroke="#E8ECEF" stroke-width="1.49647"/>
<rect x="939.27" y="336.526" width="74.8237" height="74.8237" stroke="#E8ECEF" stroke-width="1.49647"/>
<rect x="1014.09" y="336.526" width="74.8237" height="74.8237" stroke="#E8ECEF" stroke-width="1.49647"/>
<rect x="1088.92" y="336.526" width="74.8237" height="74.8237" stroke="#E8ECEF" stroke-width="1.49647"/>
<rect x="1163.74" y="336.526" width="74.8237" height="74.8237" stroke="#E8ECEF" stroke-width="1.49647"/>
</g>
</g>
<defs>
<clipPath id="clip0_2027_8959">
<rect width="1200" height="401" fill="white" transform="translate(0 -0.829102)"/>
</clipPath>
</defs>
</svg>
