<svg width="20" height="21" viewBox="0 0 20 21" fill="none" xmlns="http://www.w3.org/2000/svg">
<path d="M14.1667 2.00098H5.83335C3.53217 2.00098 1.66669 3.86646 1.66669 6.16764V14.501C1.66669 16.8022 3.53217 18.6676 5.83335 18.6676H14.1667C16.4679 18.6676 18.3334 16.8022 18.3334 14.501V6.16764C18.3334 3.86646 16.4679 2.00098 14.1667 2.00098Z" fill="#0D71F5"/>
<path d="M13.3331 9.80972C13.4359 10.5033 13.3175 11.2116 12.9945 11.8339C12.6716 12.4562 12.1607 12.9609 11.5344 13.2761C10.9082 13.5913 10.1984 13.7011 9.50622 13.5897C8.81401 13.4783 8.17454 13.1515 7.67877 12.6557C7.183 12.1599 6.85618 11.5205 6.74479 10.8282C6.6334 10.136 6.74312 9.4263 7.05834 8.80004C7.37356 8.17377 7.87822 7.66284 8.50056 7.33993C9.12289 7.01701 9.8312 6.89855 10.5247 7.00139C11.2322 7.10629 11.8871 7.43594 12.3928 7.94165C12.8985 8.44735 13.2282 9.10229 13.3331 9.80972Z" stroke="white" stroke-width="2" stroke-linecap="round" stroke-linejoin="round"/>
<path d="M14.5833 5.75098H14.5916" stroke="white" stroke-width="2" stroke-linecap="round" stroke-linejoin="round"/>
</svg>
