<svg width="20" height="21" viewBox="0 0 20 21" fill="none" xmlns="http://www.w3.org/2000/svg">
<path d="M13.3333 7.00098C14.6594 7.00098 15.9312 7.52776 16.8688 8.46544C17.8065 9.40312 18.3333 10.6749 18.3333 12.001V17.8343H15V12.001C15 11.5589 14.8244 11.135 14.5118 10.8225C14.1993 10.5099 13.7753 10.3343 13.3333 10.3343C12.8913 10.3343 12.4674 10.5099 12.1548 10.8225C11.8422 11.135 11.6666 11.5589 11.6666 12.001V17.8343H8.33331V12.001C8.33331 10.6749 8.8601 9.40312 9.79778 8.46544C10.7355 7.52776 12.0072 7.00098 13.3333 7.00098Z" fill="#0D71F5"/>
<path d="M5.00002 7.83447H1.66669V17.8345H5.00002V7.83447Z" fill="#0D71F5"/>
<path d="M3.33335 7.0013C4.25383 7.0013 5.00002 6.25511 5.00002 5.33464C5.00002 4.41416 4.25383 3.66797 3.33335 3.66797C2.41288 3.66797 1.66669 4.41416 1.66669 5.33464C1.66669 6.25511 2.41288 7.0013 3.33335 7.0013Z" fill="#0D71F5"/>
</svg>
