<svg width="18" height="14" viewBox="0 0 18 14" fill="none" xmlns="http://www.w3.org/2000/svg">
<path d="M1.79007 13.835C1.34026 13.835 0.964985 13.6847 0.664245 13.3839C0.363505 13.0832 0.212809 12.7076 0.212158 12.2571V1.74295C0.212158 1.29314 0.362854 0.917865 0.664245 0.617125C0.965636 0.316385 1.34058 0.16569 1.78909 0.165039H16.2109C16.6601 0.165039 17.0351 0.315734 17.3358 0.617125C17.6365 0.918516 17.7872 1.29379 17.7879 1.74295V12.2581C17.7879 12.7073 17.6372 13.0825 17.3358 13.3839C17.0344 13.6853 16.6595 13.8357 16.2109 13.835H1.79007ZM9.00002 7.1133L16.8114 2.00561L16.5107 1.14147L9.00002 6.02361L1.48933 1.14147L1.18859 2.00561L9.00002 7.1133Z" fill="white"/>
</svg>
