<svg width="16" height="20" viewBox="0 0 16 20" fill="none" xmlns="http://www.w3.org/2000/svg">
<path d="M4.41831 0.106456C4.96543 -0.058503 5.55254 -0.0310978 6.08191 0.184109C6.61129 0.399317 7.05098 0.789342 7.32781 1.28926L7.42033 1.47556L8.24805 3.31478C8.49876 3.87313 8.58003 4.4928 8.48179 5.09692C8.38355 5.70104 8.11012 6.26302 7.6954 6.71316L7.52911 6.8782L6.22503 8.09476C5.98996 8.31732 6.16626 9.17879 7.01648 10.6517C7.78167 11.977 8.40434 12.5959 8.71066 12.6297H8.76443L8.83069 12.6172L11.3939 11.8332C11.7383 11.7276 12.1059 11.7234 12.4527 11.8212C12.7995 11.919 13.1108 12.1146 13.3494 12.3846L13.4631 12.5284L15.1598 14.879C15.4923 15.3397 15.658 15.9 15.6296 16.4675C15.6012 17.035 15.3804 17.5758 15.0035 18.0011L14.851 18.1586L14.1733 18.8013C13.5648 19.3776 12.8036 19.767 11.9801 19.9233C11.1567 20.0795 10.3057 19.996 9.52837 19.6827C7.109 18.7075 4.91094 16.4794 2.91417 13.021C0.913659 9.55389 0.0821954 6.53186 0.453541 3.94369C0.565912 3.16133 0.888078 2.424 1.38582 1.81001C1.88357 1.19603 2.53831 0.728318 3.28052 0.456546L3.52183 0.376525L4.41831 0.106456Z" fill="white"/>
</svg>
