<svg width="384" height="238" viewBox="0 0 384 238" fill="none" xmlns="http://www.w3.org/2000/svg">
<g clip-path="url(#clip0_2018_8987)">
<rect x="-2.56244" y="-7.73828" width="22.9824" height="22.9824" stroke="#F5F6F8" stroke-width="0.459647"/>
<rect x="20.4196" y="-7.73828" width="22.9824" height="22.9824" stroke="#F5F6F8" stroke-width="0.459647"/>
<rect x="43.402" y="-7.73828" width="22.9824" height="22.9824" stroke="#F5F6F8" stroke-width="0.459647"/>
<rect x="66.3843" y="-7.73828" width="22.9824" height="22.9824" stroke="#F5F6F8" stroke-width="0.459647"/>
<rect x="89.3668" y="-7.73828" width="22.9824" height="22.9824" stroke="#F5F6F8" stroke-width="0.459647"/>
<rect x="112.349" y="-7.73828" width="22.9824" height="22.9824" stroke="#F5F6F8" stroke-width="0.459647"/>
<rect x="135.332" y="-7.73828" width="22.9824" height="22.9824" stroke="#F5F6F8" stroke-width="0.459647"/>
<rect x="158.314" y="-7.73828" width="22.9824" height="22.9824" stroke="#F5F6F8" stroke-width="0.459647"/>
<rect x="181.296" y="-7.73828" width="22.9824" height="22.9824" stroke="#F5F6F8" stroke-width="0.459647"/>
<rect x="204.278" y="-7.73828" width="22.9824" height="22.9824" stroke="#F5F6F8" stroke-width="0.459647"/>
<rect x="227.261" y="-7.73828" width="22.9824" height="22.9824" stroke="#F5F6F8" stroke-width="0.459647"/>
<rect x="250.243" y="-7.73828" width="22.9824" height="22.9824" stroke="#F5F6F8" stroke-width="0.459647"/>
<rect x="273.226" y="-7.73828" width="22.9824" height="22.9824" stroke="#F5F6F8" stroke-width="0.459647"/>
<rect x="296.208" y="-7.73828" width="22.9824" height="22.9824" stroke="#F5F6F8" stroke-width="0.459647"/>
<rect x="319.191" y="-7.73828" width="22.9824" height="22.9824" stroke="#F5F6F8" stroke-width="0.459647"/>
<rect x="342.173" y="-7.73828" width="22.9824" height="22.9824" stroke="#F5F6F8" stroke-width="0.459647"/>
<rect x="365.155" y="-7.73828" width="22.9824" height="22.9824" stroke="#F5F6F8" stroke-width="0.459647"/>
<rect x="-2.56268" y="15.2434" width="22.9824" height="22.9824" stroke="#F5F6F8" stroke-width="0.459647"/>
<rect x="20.4196" y="15.2434" width="22.9824" height="22.9824" stroke="#F5F6F8" stroke-width="0.459647"/>
<rect x="43.402" y="15.2434" width="22.9824" height="22.9824" stroke="#F5F6F8" stroke-width="0.459647"/>
<rect x="66.3843" y="15.2434" width="22.9824" height="22.9824" stroke="#F5F6F8" stroke-width="0.459647"/>
<rect x="89.3668" y="15.2434" width="22.9824" height="22.9824" stroke="#F5F6F8" stroke-width="0.459647"/>
<rect x="112.349" y="15.2434" width="22.9824" height="22.9824" stroke="#F5F6F8" stroke-width="0.459647"/>
<rect x="135.332" y="15.2434" width="22.9824" height="22.9824" stroke="#F5F6F8" stroke-width="0.459647"/>
<rect x="158.314" y="15.2434" width="22.9824" height="22.9824" stroke="#F5F6F8" stroke-width="0.459647"/>
<rect x="181.296" y="15.2434" width="22.9824" height="22.9824" stroke="#F5F6F8" stroke-width="0.459647"/>
<rect x="204.278" y="15.2434" width="22.9824" height="22.9824" stroke="#F5F6F8" stroke-width="0.459647"/>
<rect x="227.261" y="15.2434" width="22.9824" height="22.9824" stroke="#F5F6F8" stroke-width="0.459647"/>
<rect x="250.243" y="15.2434" width="22.9824" height="22.9824" stroke="#F5F6F8" stroke-width="0.459647"/>
<rect x="273.226" y="15.2434" width="22.9824" height="22.9824" stroke="#F5F6F8" stroke-width="0.459647"/>
<rect x="296.208" y="15.2434" width="22.9824" height="22.9824" stroke="#F5F6F8" stroke-width="0.459647"/>
<rect x="319.191" y="15.2434" width="22.9824" height="22.9824" stroke="#F5F6F8" stroke-width="0.459647"/>
<rect x="342.173" y="15.2434" width="22.9824" height="22.9824" stroke="#F5F6F8" stroke-width="0.459647"/>
<rect x="365.155" y="15.2434" width="22.9824" height="22.9824" stroke="#F5F6F8" stroke-width="0.459647"/>
<rect x="-2.56268" y="38.2253" width="22.9824" height="22.9824" stroke="#F5F6F8" stroke-width="0.459647"/>
<rect x="20.4197" y="38.2253" width="22.9824" height="22.9824" stroke="#F5F6F8" stroke-width="0.459647"/>
<rect x="43.402" y="38.2253" width="22.9824" height="22.9824" stroke="#F5F6F8" stroke-width="0.459647"/>
<rect x="66.3845" y="38.2253" width="22.9824" height="22.9824" fill="#F5F6F8" stroke="#F5F6F8" stroke-width="0.459647"/>
<rect x="89.3669" y="38.2253" width="22.9824" height="22.9824" stroke="#F5F6F8" stroke-width="0.459647"/>
<rect x="112.349" y="38.2253" width="22.9824" height="22.9824" stroke="#F5F6F8" stroke-width="0.459647"/>
<rect x="135.332" y="38.2253" width="22.9824" height="22.9824" stroke="#F5F6F8" stroke-width="0.459647"/>
<rect x="158.314" y="38.2253" width="22.9824" height="22.9824" stroke="#F5F6F8" stroke-width="0.459647"/>
<rect x="181.296" y="38.2253" width="22.9824" height="22.9824" stroke="#F5F6F8" stroke-width="0.459647"/>
<rect x="204.278" y="38.2253" width="22.9824" height="22.9824" stroke="#F5F6F8" stroke-width="0.459647"/>
<rect x="227.261" y="38.2253" width="22.9824" height="22.9824" stroke="#F5F6F8" stroke-width="0.459647"/>
<rect x="250.243" y="38.2253" width="22.9824" height="22.9824" stroke="#F5F6F8" stroke-width="0.459647"/>
<rect x="273.226" y="38.2253" width="22.9824" height="22.9824" stroke="#F5F6F8" stroke-width="0.459647"/>
<rect x="296.208" y="38.2253" width="22.9824" height="22.9824" fill="#F5F6F8" stroke="#F5F6F8" stroke-width="0.459647"/>
<rect x="319.191" y="38.2253" width="22.9824" height="22.9824" stroke="#F5F6F8" stroke-width="0.459647"/>
<rect x="342.173" y="38.2253" width="22.9824" height="22.9824" stroke="#F5F6F8" stroke-width="0.459647"/>
<rect x="365.155" y="38.2253" width="22.9824" height="22.9824" stroke="#F5F6F8" stroke-width="0.459647"/>
<rect x="-2.56244" y="61.2075" width="22.9824" height="22.9824" stroke="#F5F6F8" stroke-width="0.459647"/>
<rect x="20.4196" y="61.2075" width="22.9824" height="22.9824" stroke="#F5F6F8" stroke-width="0.459647"/>
<rect x="43.402" y="61.2075" width="22.9824" height="22.9824" stroke="#F5F6F8" stroke-width="0.459647"/>
<rect x="66.3843" y="61.2075" width="22.9824" height="22.9824" stroke="#F5F6F8" stroke-width="0.459647"/>
<rect x="89.3668" y="61.2075" width="22.9824" height="22.9824" stroke="#F5F6F8" stroke-width="0.459647"/>
<rect x="112.349" y="61.2075" width="22.9824" height="22.9824" stroke="#F5F6F8" stroke-width="0.459647"/>
<rect x="135.332" y="61.2075" width="22.9824" height="22.9824" stroke="#F5F6F8" stroke-width="0.459647"/>
<rect x="158.314" y="61.2075" width="22.9824" height="22.9824" stroke="#F5F6F8" stroke-width="0.459647"/>
<rect x="181.296" y="61.2075" width="22.9824" height="22.9824" stroke="#F5F6F8" stroke-width="0.459647"/>
<rect x="204.278" y="61.2075" width="22.9824" height="22.9824" stroke="#F5F6F8" stroke-width="0.459647"/>
<rect x="227.261" y="61.2075" width="22.9824" height="22.9824" stroke="#F5F6F8" stroke-width="0.459647"/>
<rect x="250.243" y="61.2075" width="22.9824" height="22.9824" stroke="#F5F6F8" stroke-width="0.459647"/>
<rect x="273.226" y="61.2075" width="22.9824" height="22.9824" stroke="#F5F6F8" stroke-width="0.459647"/>
<rect x="296.208" y="61.2075" width="22.9824" height="22.9824" stroke="#F5F6F8" stroke-width="0.459647"/>
<rect x="319.191" y="61.2075" width="22.9824" height="22.9824" stroke="#F5F6F8" stroke-width="0.459647"/>
<rect x="342.173" y="61.2075" width="22.9824" height="22.9824" stroke="#F5F6F8" stroke-width="0.459647"/>
<rect x="365.155" y="61.2075" width="22.9824" height="22.9824" stroke="#F5F6F8" stroke-width="0.459647"/>
<rect x="-2.56268" y="84.1902" width="22.9824" height="22.9824" stroke="#F5F6F8" stroke-width="0.459647"/>
<rect x="20.4197" y="84.1902" width="22.9824" height="22.9824" fill="#F5F6F8" stroke="#F5F6F8" stroke-width="0.459647"/>
<rect x="43.402" y="84.1902" width="22.9824" height="22.9824" stroke="#F5F6F8" stroke-width="0.459647"/>
<rect x="66.3845" y="84.1902" width="22.9824" height="22.9824" stroke="#F5F6F8" stroke-width="0.459647"/>
<rect x="89.3669" y="84.1902" width="22.9824" height="22.9824" stroke="#F5F6F8" stroke-width="0.459647"/>
<rect x="112.349" y="84.1902" width="22.9824" height="22.9824" stroke="#F5F6F8" stroke-width="0.459647"/>
<rect x="135.332" y="84.1902" width="22.9824" height="22.9824" stroke="#F5F6F8" stroke-width="0.459647"/>
<rect x="158.314" y="84.1902" width="22.9824" height="22.9824" stroke="#F5F6F8" stroke-width="0.459647"/>
<rect x="181.296" y="84.1902" width="22.9824" height="22.9824" stroke="#F5F6F8" stroke-width="0.459647"/>
<rect x="204.278" y="84.1902" width="22.9824" height="22.9824" stroke="#F5F6F8" stroke-width="0.459647"/>
<rect x="227.261" y="84.1902" width="22.9824" height="22.9824" stroke="#F5F6F8" stroke-width="0.459647"/>
<rect x="250.243" y="84.1902" width="22.9824" height="22.9824" stroke="#F5F6F8" stroke-width="0.459647"/>
<rect x="273.226" y="84.1902" width="22.9824" height="22.9824" stroke="#F5F6F8" stroke-width="0.459647"/>
<rect x="296.208" y="84.1902" width="22.9824" height="22.9824" stroke="#F5F6F8" stroke-width="0.459647"/>
<rect x="319.191" y="84.1902" width="22.9824" height="22.9824" stroke="#F5F6F8" stroke-width="0.459647"/>
<rect x="342.173" y="84.1902" width="22.9824" height="22.9824" fill="#F5F6F8" stroke="#F5F6F8" stroke-width="0.459647"/>
<rect x="365.155" y="84.1902" width="22.9824" height="22.9824" stroke="#F5F6F8" stroke-width="0.459647"/>
<rect x="-2.56268" y="107.173" width="22.9824" height="22.9824" stroke="#F5F6F8" stroke-width="0.459647"/>
<rect x="20.4196" y="107.173" width="22.9824" height="22.9824" stroke="#F5F6F8" stroke-width="0.459647"/>
<rect x="43.402" y="107.173" width="22.9824" height="22.9824" stroke="#F5F6F8" stroke-width="0.459647"/>
<rect x="66.3843" y="107.173" width="22.9824" height="22.9824" stroke="#F5F6F8" stroke-width="0.459647"/>
<rect x="89.3668" y="107.173" width="22.9824" height="22.9824" stroke="#F5F6F8" stroke-width="0.459647"/>
<rect x="112.349" y="107.173" width="22.9824" height="22.9824" stroke="#F5F6F8" stroke-width="0.459647"/>
<rect x="135.332" y="107.173" width="22.9824" height="22.9824" stroke="#F5F6F8" stroke-width="0.459647"/>
<rect x="158.314" y="107.173" width="22.9824" height="22.9824" stroke="#F5F6F8" stroke-width="0.459647"/>
<rect x="181.296" y="107.173" width="22.9824" height="22.9824" stroke="#F5F6F8" stroke-width="0.459647"/>
<rect x="204.278" y="107.173" width="22.9824" height="22.9824" stroke="#F5F6F8" stroke-width="0.459647"/>
<rect x="227.261" y="107.173" width="22.9824" height="22.9824" stroke="#F5F6F8" stroke-width="0.459647"/>
<rect x="250.243" y="107.173" width="22.9824" height="22.9824" stroke="#F5F6F8" stroke-width="0.459647"/>
<rect x="273.226" y="107.173" width="22.9824" height="22.9824" stroke="#F5F6F8" stroke-width="0.459647"/>
<rect x="296.208" y="107.173" width="22.9824" height="22.9824" stroke="#F5F6F8" stroke-width="0.459647"/>
<rect x="319.191" y="107.173" width="22.9824" height="22.9824" stroke="#F5F6F8" stroke-width="0.459647"/>
<rect x="342.173" y="107.173" width="22.9824" height="22.9824" stroke="#F5F6F8" stroke-width="0.459647"/>
<rect x="365.155" y="107.173" width="22.9824" height="22.9824" stroke="#F5F6F8" stroke-width="0.459647"/>
<rect x="-2.56244" y="130.156" width="22.9824" height="22.9824" stroke="#F5F6F8" stroke-width="0.459647"/>
<rect x="20.4196" y="130.156" width="22.9824" height="22.9824" stroke="#F5F6F8" stroke-width="0.459647"/>
<rect x="43.4021" y="130.156" width="22.9824" height="22.9824" stroke="#F5F6F8" stroke-width="0.459647"/>
<rect x="66.3843" y="130.156" width="22.9824" height="22.9824" stroke="#F5F6F8" stroke-width="0.459647"/>
<rect x="89.3669" y="130.156" width="22.9824" height="22.9824" stroke="#F5F6F8" stroke-width="0.459647"/>
<rect x="112.349" y="130.156" width="22.9824" height="22.9824" stroke="#F5F6F8" stroke-width="0.459647"/>
<rect x="135.332" y="130.156" width="22.9824" height="22.9824" stroke="#F5F6F8" stroke-width="0.459647"/>
<rect x="158.314" y="130.156" width="22.9824" height="22.9824" stroke="#F5F6F8" stroke-width="0.459647"/>
<rect x="181.296" y="130.156" width="22.9824" height="22.9824" stroke="#F5F6F8" stroke-width="0.459647"/>
<rect x="204.278" y="130.156" width="22.9824" height="22.9824" stroke="#F5F6F8" stroke-width="0.459647"/>
<rect x="227.261" y="130.156" width="22.9824" height="22.9824" stroke="#F5F6F8" stroke-width="0.459647"/>
<rect x="250.243" y="130.156" width="22.9824" height="22.9824" stroke="#F5F6F8" stroke-width="0.459647"/>
<rect x="273.226" y="130.156" width="22.9824" height="22.9824" stroke="#F5F6F8" stroke-width="0.459647"/>
<rect x="296.208" y="130.156" width="22.9824" height="22.9824" stroke="#F5F6F8" stroke-width="0.459647"/>
<rect x="319.191" y="130.156" width="22.9824" height="22.9824" stroke="#F5F6F8" stroke-width="0.459647"/>
<rect x="342.173" y="130.156" width="22.9824" height="22.9824" stroke="#F5F6F8" stroke-width="0.459647"/>
<rect x="365.155" y="130.156" width="22.9824" height="22.9824" stroke="#F5F6F8" stroke-width="0.459647"/>
<rect x="-2.56244" y="153.138" width="22.9824" height="22.9824" stroke="#F5F6F8" stroke-width="0.459647"/>
<rect x="20.4196" y="153.138" width="22.9824" height="22.9824" stroke="#F5F6F8" stroke-width="0.459647"/>
<rect x="43.402" y="153.138" width="22.9824" height="22.9824" stroke="#F5F6F8" stroke-width="0.459647"/>
<rect x="66.3843" y="153.138" width="22.9824" height="22.9824" stroke="#F5F6F8" stroke-width="0.459647"/>
<rect x="89.3668" y="153.138" width="22.9824" height="22.9824" stroke="#F5F6F8" stroke-width="0.459647"/>
<rect x="112.349" y="153.138" width="22.9824" height="22.9824" stroke="#F5F6F8" stroke-width="0.459647"/>
<rect x="135.332" y="153.138" width="22.9824" height="22.9824" stroke="#F5F6F8" stroke-width="0.459647"/>
<rect x="158.314" y="153.138" width="22.9824" height="22.9824" stroke="#F5F6F8" stroke-width="0.459647"/>
<rect x="181.296" y="153.138" width="22.9824" height="22.9824" stroke="#F5F6F8" stroke-width="0.459647"/>
<rect x="204.278" y="153.138" width="22.9824" height="22.9824" stroke="#F5F6F8" stroke-width="0.459647"/>
<rect x="227.261" y="153.138" width="22.9824" height="22.9824" stroke="#F5F6F8" stroke-width="0.459647"/>
<rect x="250.243" y="153.138" width="22.9824" height="22.9824" stroke="#F5F6F8" stroke-width="0.459647"/>
<rect x="273.226" y="153.138" width="22.9824" height="22.9824" stroke="#F5F6F8" stroke-width="0.459647"/>
<rect x="296.208" y="153.138" width="22.9824" height="22.9824" stroke="#F5F6F8" stroke-width="0.459647"/>
<rect x="319.191" y="153.138" width="22.9824" height="22.9824" stroke="#F5F6F8" stroke-width="0.459647"/>
<rect x="342.173" y="153.138" width="22.9824" height="22.9824" stroke="#F5F6F8" stroke-width="0.459647"/>
<rect x="365.155" y="153.138" width="22.9824" height="22.9824" stroke="#F5F6F8" stroke-width="0.459647"/>
<rect x="-2.56268" y="176.12" width="22.9824" height="22.9824" stroke="#F5F6F8" stroke-width="0.459647"/>
<rect x="20.4197" y="176.12" width="22.9824" height="22.9824" stroke="#F5F6F8" stroke-width="0.459647"/>
<rect x="43.402" y="176.12" width="22.9824" height="22.9824" stroke="#F5F6F8" stroke-width="0.459647"/>
<rect x="66.3843" y="176.12" width="22.9824" height="22.9824" stroke="#F5F6F8" stroke-width="0.459647"/>
<rect x="89.3669" y="176.12" width="22.9824" height="22.9824" stroke="#F5F6F8" stroke-width="0.459647"/>
<rect x="112.349" y="176.12" width="22.9824" height="22.9824" stroke="#F5F6F8" stroke-width="0.459647"/>
<rect x="135.332" y="176.12" width="22.9824" height="22.9824" stroke="#F5F6F8" stroke-width="0.459647"/>
<rect x="158.314" y="176.12" width="22.9824" height="22.9824" stroke="#F5F6F8" stroke-width="0.459647"/>
<rect x="181.296" y="176.12" width="22.9824" height="22.9824" stroke="#F5F6F8" stroke-width="0.459647"/>
<rect x="204.278" y="176.12" width="22.9824" height="22.9824" stroke="#F5F6F8" stroke-width="0.459647"/>
<rect x="227.261" y="176.12" width="22.9824" height="22.9824" stroke="#F5F6F8" stroke-width="0.459647"/>
<rect x="250.243" y="176.12" width="22.9824" height="22.9824" stroke="#F5F6F8" stroke-width="0.459647"/>
<rect x="273.226" y="176.12" width="22.9824" height="22.9824" stroke="#F5F6F8" stroke-width="0.459647"/>
<rect x="296.208" y="176.12" width="22.9824" height="22.9824" stroke="#F5F6F8" stroke-width="0.459647"/>
<rect x="319.191" y="176.12" width="22.9824" height="22.9824" stroke="#F5F6F8" stroke-width="0.459647"/>
<rect x="342.173" y="176.12" width="22.9824" height="22.9824" stroke="#F5F6F8" stroke-width="0.459647"/>
<rect x="365.155" y="176.12" width="22.9824" height="22.9824" stroke="#F5F6F8" stroke-width="0.459647"/>
<rect x="-2.56268" y="199.103" width="22.9824" height="22.9824" stroke="#F5F6F8" stroke-width="0.459647"/>
<rect x="20.4197" y="199.103" width="22.9824" height="22.9824" stroke="#F5F6F8" stroke-width="0.459647"/>
<rect x="43.4021" y="199.103" width="22.9824" height="22.9824" stroke="#F5F6F8" stroke-width="0.459647"/>
<rect x="66.3843" y="199.103" width="22.9824" height="22.9824" stroke="#F5F6F8" stroke-width="0.459647"/>
<rect x="89.3669" y="199.103" width="22.9824" height="22.9824" stroke="#F5F6F8" stroke-width="0.459647"/>
<rect x="112.349" y="199.103" width="22.9824" height="22.9824" stroke="#F5F6F8" stroke-width="0.459647"/>
<rect x="135.332" y="199.103" width="22.9824" height="22.9824" stroke="#F5F6F8" stroke-width="0.459647"/>
<rect x="158.314" y="199.103" width="22.9824" height="22.9824" stroke="#F5F6F8" stroke-width="0.459647"/>
<rect x="181.296" y="199.103" width="22.9824" height="22.9824" stroke="#F5F6F8" stroke-width="0.459647"/>
<rect x="204.278" y="199.103" width="22.9824" height="22.9824" stroke="#F5F6F8" stroke-width="0.459647"/>
<rect x="227.261" y="199.103" width="22.9824" height="22.9824" stroke="#F5F6F8" stroke-width="0.459647"/>
<rect x="250.243" y="199.103" width="22.9824" height="22.9824" stroke="#F5F6F8" stroke-width="0.459647"/>
<rect x="273.226" y="199.103" width="22.9824" height="22.9824" stroke="#F5F6F8" stroke-width="0.459647"/>
<rect x="296.208" y="199.103" width="22.9824" height="22.9824" stroke="#F5F6F8" stroke-width="0.459647"/>
<rect x="319.191" y="199.103" width="22.9824" height="22.9824" stroke="#F5F6F8" stroke-width="0.459647"/>
<rect x="342.173" y="199.103" width="22.9824" height="22.9824" stroke="#F5F6F8" stroke-width="0.459647"/>
<rect x="365.155" y="199.103" width="22.9824" height="22.9824" stroke="#F5F6F8" stroke-width="0.459647"/>
<rect x="-2.56268" y="222.085" width="22.9824" height="22.9824" stroke="#F5F6F8" stroke-width="0.459647"/>
<rect x="20.4196" y="222.085" width="22.9824" height="22.9824" stroke="#F5F6F8" stroke-width="0.459647"/>
<rect x="43.402" y="222.085" width="22.9824" height="22.9824" stroke="#F5F6F8" stroke-width="0.459647"/>
<rect x="66.3843" y="222.085" width="22.9824" height="22.9824" stroke="#F5F6F8" stroke-width="0.459647"/>
<rect x="89.3668" y="222.085" width="22.9824" height="22.9824" stroke="#F5F6F8" stroke-width="0.459647"/>
<rect x="112.349" y="222.085" width="22.9824" height="22.9824" stroke="#F5F6F8" stroke-width="0.459647"/>
<rect x="135.332" y="222.085" width="22.9824" height="22.9824" stroke="#F5F6F8" stroke-width="0.459647"/>
<rect x="158.314" y="222.085" width="22.9824" height="22.9824" stroke="#F5F6F8" stroke-width="0.459647"/>
<rect x="181.296" y="222.085" width="22.9824" height="22.9824" stroke="#F5F6F8" stroke-width="0.459647"/>
<rect x="204.278" y="222.085" width="22.9824" height="22.9824" stroke="#F5F6F8" stroke-width="0.459647"/>
<rect x="227.261" y="222.085" width="22.9824" height="22.9824" stroke="#F5F6F8" stroke-width="0.459647"/>
<rect x="250.243" y="222.085" width="22.9824" height="22.9824" stroke="#F5F6F8" stroke-width="0.459647"/>
<rect x="273.226" y="222.085" width="22.9824" height="22.9824" stroke="#F5F6F8" stroke-width="0.459647"/>
<rect x="296.208" y="222.085" width="22.9824" height="22.9824" stroke="#F5F6F8" stroke-width="0.459647"/>
<rect x="319.191" y="222.085" width="22.9824" height="22.9824" stroke="#F5F6F8" stroke-width="0.459647"/>
<rect x="342.173" y="222.085" width="22.9824" height="22.9824" stroke="#F5F6F8" stroke-width="0.459647"/>
<rect x="365.155" y="222.085" width="22.9824" height="22.9824" stroke="#F5F6F8" stroke-width="0.459647"/>
</g>
<defs>
<clipPath id="clip0_2018_8987">
<rect width="384" height="238" fill="white"/>
</clipPath>
</defs>
</svg>
