<svg width="25" height="24" viewBox="0 0 25 24" fill="none" xmlns="http://www.w3.org/2000/svg">
<path d="M8.54999 14.72L7.54999 13.72L4.44999 14.71H4.34999C4.30129 14.7128 4.25256 14.7053 4.20692 14.6881C4.16129 14.6708 4.11976 14.6443 4.08499 14.61L3.35999 13.895C3.30143 13.8393 3.26395 13.7651 3.25392 13.6849C3.2439 13.6047 3.26194 13.5235 3.30499 13.455L4.14999 12C4.67338 11.1043 5.40355 10.3469 6.27949 9.79109C7.15543 9.23526 8.15168 8.89716 9.18499 8.80505L10.43 8.69505M10.43 8.69505C11.1533 7.83505 11.82 7.09838 12.43 6.48505C13.5874 5.25907 14.969 4.26617 16.5 3.56005C18.0604 2.97636 19.7198 2.70291 21.385 2.75505C21.4856 2.75644 21.582 2.79572 21.655 2.86505C21.6896 2.89685 21.7173 2.93549 21.7362 2.97852C21.7551 3.02155 21.7649 3.06804 21.765 3.11505C21.7987 4.78518 21.5013 6.44546 20.89 8.00005C20.202 9.53551 19.2202 10.9215 18 12.08C17.385 12.7 16.645 13.365 15.79 14.08L15.68 15.32C15.5903 16.3528 15.2548 17.3492 14.7016 18.226C14.1484 19.1027 13.3936 19.8344 12.5 20.36L11.055 21.205C10.9978 21.2347 10.9344 21.2502 10.87 21.25C10.7743 21.2481 10.6823 21.2127 10.61 21.15L9.88499 20.42C9.83818 20.3753 9.80491 20.3183 9.789 20.2555C9.77308 20.1927 9.77516 20.1267 9.79499 20.065L10.76 16.93M10.43 8.69505L7.57499 13.745M10.76 16.93L9.78999 15.96M10.76 16.93L15.81 14.08M19.21 7.35005C19.2113 6.80722 18.9973 6.28602 18.6149 5.90077C18.2324 5.51553 17.7128 5.29769 17.17 5.29505C16.8919 5.28132 16.614 5.32423 16.353 5.42119C16.092 5.51814 15.8535 5.6671 15.6518 5.85905C15.4502 6.05099 15.2896 6.28191 15.1799 6.53778C15.0702 6.79365 15.0137 7.06915 15.0137 7.34755C15.0137 7.62595 15.0702 7.90144 15.1799 8.15732C15.2896 8.41319 15.4502 8.64411 15.6518 8.83605C15.8535 9.02799 16.092 9.17696 16.353 9.27391C16.614 9.37086 16.8919 9.41378 17.17 9.40005C17.7089 9.40029 18.2262 9.18834 18.61 8.81005C18.8029 8.6197 18.9551 8.39213 19.0574 8.14115C19.1597 7.89017 19.2099 7.62102 19.205 7.35005H19.21Z" stroke="#242424" stroke-linecap="round" stroke-linejoin="round"/>
<path d="M7 17.5C9 17.13 12.55 13.8 12.965 11.535C10.685 11.97 7.355 15.5 7 17.5Z" stroke="#242424" stroke-linecap="round" stroke-linejoin="round"/>
</svg>
