<svg width="348" height="125" viewBox="0 0 348 125" fill="none" xmlns="http://www.w3.org/2000/svg">
<path d="M105.605 123.987H132.917V38.3086L105.605 55.3596V123.987Z" fill="#242424"/>
<path d="M322.71 121.545L342.45 102.666L280.65 38.1836H256.93V55.9386V65.1976H267.73L283.93 81.4006L291 88.7416L322.71 121.545Z" fill="#242424"/>
<path d="M322.278 121.268L342.008 102.388L280.218 37.9062H256.488V55.6622V64.9213H267.298L283.488 81.1232L290.558 88.4653L322.278 121.268Z" fill="#242424"/>
<path d="M282.068 40.6562L262.328 59.5352L324.118 124.017H347.848V106.262V97.0032H337.048L320.848 80.8002L313.778 73.4592L282.068 40.6562Z" fill="#242424"/>
<path d="M0 69.001H27.312V123.988H16.387L0 106.893V69.001Z" fill="#242424"/>
<path d="M63.6523 82.1714H90.9644V38.1934H80.0394L63.6523 55.3594V82.1714Z" fill="#242424"/>
<path d="M0 82.1724H27.312V38.1943H16.387H0V82.1724Z" fill="#242424"/>
<path d="M105.703 82.1714H133.014V38.1934H122.09L105.703 55.3594V82.1714Z" fill="#242424"/>
<path d="M91.0385 38.3096L63.7266 55.7466V123.988H74.6505L91.0385 106.893V38.3096Z" fill="#242424"/>
<path d="M63.2689 124.088V96.7773H1.21484V107.702L16.8939 124.089L63.2689 124.088Z" fill="#242424"/>
<path d="M50.9219 124.089V96.7773H90.9369V107.701L75.2579 124.088L50.9219 124.089Z" fill="#242424"/>
<path d="M147.484 96.9792H174.8V38.4102H163.87L147.484 55.5052V96.9792Z" fill="#242424"/>
<path d="M147.484 65.418H174.8V123.683H163.87L147.484 106.677V65.418Z" fill="#242424"/>
<path d="M237.31 96.9791H210V38.4111H220.92L237.31 55.5061V96.9791Z" fill="#242424"/>
<path d="M237.31 80.2432H210V123.887H220.92L237.31 106.88V80.2432Z" fill="#242424"/>
<path d="M132.916 10.337L116.616 27.311L105.605 27.312V0H132.916V10.337Z" fill="#242424"/>
<path d="M216.672 65.6224V38.3105H163.869V65.6224H216.672Z" fill="#242424"/>
<path d="M216.672 123.887V96.9795H163.869V123.887H216.672Z" fill="#242424"/>
<path d="M284.24 124.215H256.93V80.2373H267.85L284.24 97.4033V124.215Z" fill="#242424"/>
<path d="M320.578 38.1924H347.898V82.1703H336.968L320.578 65.0044V38.1924Z" fill="#242424"/>
</svg>
