<svg width="62" height="66" viewBox="0 0 62 66" fill="none" xmlns="http://www.w3.org/2000/svg">
<g clip-path="url(#clip0_423_1005)">
<path d="M30.617 1.0498L0.257812 11.734L5.05538 51.5094L30.6491 65.5762L56.3751 51.3188L61.1707 11.5448L30.617 1.0498Z" fill="#B3B3B3"/>
<path d="M58.1434 13.8433L30.5469 4.43262V62.2152L53.6739 49.4157L58.1434 13.8433Z" fill="#A6120D"/>
<path d="M3.66406 14.0131L7.77521 49.586L30.5452 62.2154V4.43188L3.6643 14.0129L3.66406 14.0131Z" fill="#DD1B16"/>
<path d="M38.1423 35.1931L30.5458 38.7455H22.5393L18.7757 48.1593L11.7754 48.2886L30.5458 6.53101L38.1423 35.1933V35.1931ZM37.4079 33.4047L30.5964 19.9197L25.0089 33.1726H30.5456L37.4079 33.4049V33.4047Z" fill="#F2F2F2"/>
<path d="M30.5469 6.53076L30.5972 19.9197L36.9369 33.1829H30.5612L30.5469 38.7368L39.3631 38.7452L43.4836 48.2901L50.1819 48.4141L30.5469 6.53076Z" fill="#B3B3B3"/>
</g>
<defs>
<clipPath id="clip0_423_1005">
<rect width="61.3139" height="64.6771" fill="white" transform="translate(0.0546875 0.968018)"/>
</clipPath>
</defs>
</svg>
