<svg width="59" height="39" viewBox="0 0 59 39" fill="none" xmlns="http://www.w3.org/2000/svg">
<path d="M18.0941 0.30944C10.4103 0.99012 3.88369 6.19988 1.4776 13.5662C0.785424 15.6887 0.546875 17.21 0.546875 19.5936C0.546875 21.9772 0.785424 23.4981 1.4776 25.6206C5.16649 36.8798 17.9241 42.1921 28.5256 36.8913L29.5129 36.3917L30.5116 36.8913C39.2402 41.2614 49.8528 38.4687 55.2781 30.3422C56.697 28.2312 57.7867 25.4956 58.2519 22.8964C58.4224 21.8977 58.4789 21.103 58.4789 19.5936C58.4789 17.21 58.2408 15.6887 57.5482 13.5662C53.8593 2.30693 41.1017 -3.00486 30.5116 2.29543L29.5129 2.79505L28.5256 2.29543C26.2929 1.18594 23.8707 0.508222 21.3864 0.297944C19.8766 0.172921 19.57 0.172921 18.0941 0.30944ZM22.9523 4.42945C24.0646 4.645 26.2101 5.48471 27.5149 6.22288C29.2973 7.22162 31.3173 9.09457 32.5546 10.888C33.2243 11.8638 34.121 13.7027 34.6316 15.167C35.3583 17.21 35.3583 21.9772 34.6316 24.0197C33.7464 26.5173 32.6227 28.4583 31.1133 30.0586C29.3199 31.9656 27.6514 33.0889 25.1543 34.0651C23.5654 34.6893 22.6122 34.8938 20.7393 34.9844C18.4462 35.0979 16.3802 34.8258 14.7573 34.1786C14.3487 34.0081 13.9286 33.8611 13.8041 33.8381C13.5655 33.7815 11.5225 32.6463 10.8304 32.1807C10.0927 31.6815 8.27673 29.8996 7.57258 28.9799C7.22099 28.5148 6.92591 28.1062 6.92591 28.0722C6.92591 28.0382 6.66485 27.5611 6.34678 27.0164C5.79065 26.0517 5.41606 25.2685 5.50707 25.2685C5.52959 25.2685 5.40504 24.9054 5.2235 24.4628C4.66736 23.135 4.49683 21.9657 4.49683 19.5936C4.49683 17.2211 4.66736 16.0518 5.2235 14.7239C5.40504 14.2813 5.52959 13.9182 5.50707 13.9182C5.41606 13.9182 5.79065 13.1351 6.34678 12.1703C6.66485 11.6257 6.92591 11.1491 6.92591 11.1146C6.92591 11.0806 7.22099 10.672 7.57258 10.2068C8.27673 9.28713 10.0927 7.5052 10.8304 7.00607C11.5115 6.54046 13.5655 5.4052 13.8041 5.34867C13.9286 5.32616 14.4057 5.15563 14.8708 4.97409C15.9036 4.56549 16.5733 4.40693 17.7655 4.27041C18.9913 4.13437 21.874 4.22539 22.9523 4.42945Z" fill="#F02E65"/>
</svg>
