<svg width="59" height="59" viewBox="0 0 59 59" fill="none" xmlns="http://www.w3.org/2000/svg">
<path d="M12.6969 46.8329L2.80909 36.9451C1.61724 35.7195 0.936854 34.086 0.90625 32.3767C0.90625 31.6063 1.33766 30.4045 1.66507 29.715L10.7941 10.6943L12.6969 46.8329Z" fill="#01579B"/>
<path d="M46.5502 12.5973L36.6624 2.70948C35.8034 1.8428 34.0046 0.806641 32.4792 0.806641C31.1696 0.806641 29.8908 1.06857 29.0549 1.56547L10.7969 10.6945L46.5502 12.5973ZM24.4904 58.6237H48.4569V48.3545L30.5764 42.646L14.2212 48.3507L24.4904 58.6237Z" fill="#40C4FF"/>
<path d="M10.8008 41.5096C10.8008 44.5603 11.1821 45.3114 12.6998 46.8368L14.2213 48.3583H48.457L31.7205 29.3415L10.8008 10.6982V41.5096Z" fill="#29B6F6"/>
<path d="M41.2269 10.6943H10.7969L48.4531 48.3543H58.7222V24.7653L46.5502 12.5933C44.8438 10.8792 43.3262 10.6943 41.2269 10.6943Z" fill="#01579B"/>
<path opacity="0.2" d="M13.0771 47.2142C11.5595 45.685 11.1782 44.1828 11.1782 41.5134V11.0795L10.793 10.6943V41.5096C10.8007 44.1828 10.8007 44.9223 13.081 47.2142H13.0771Z" fill="white"/>
<path opacity="0.2" d="M58.3473 24.3915V47.9729H48.0781L48.4595 48.3542H58.7325V24.7729L58.3473 24.3915Z" fill="#263238"/>
<path opacity="0.2" d="M46.5502 12.5972C44.6667 10.7097 43.122 10.6943 40.8494 10.6943H10.7969L11.1821 11.0795H40.8533C41.9819 11.0795 44.8477 10.8869 46.5502 12.5972Z" fill="white"/>
<path opacity="0.2" d="M58.3458 24.3918L46.5513 12.5934L36.6596 2.70557C35.7968 1.83889 33.9979 0.802734 32.4764 0.802734C31.1668 0.802734 29.8841 1.06466 29.0521 1.56155L10.7941 10.6906L1.66507 29.7113C1.33766 30.4046 0.90625 31.6025 0.90625 32.3729C0.90625 34.0331 1.63811 35.7318 2.80909 36.9413L11.9227 45.9894C12.1422 46.2552 12.3965 46.5287 12.7008 46.8291L13.086 47.2143L14.2261 48.3545L24.1178 58.2423L24.4991 58.6275H48.4657V48.3545H58.7349V24.7731L58.342 24.3879L58.3458 24.3918Z" fill="url(#paint0_radial_423_948)"/>
<defs>
<radialGradient id="paint0_radial_423_948" cx="0" cy="0" r="1" gradientUnits="userSpaceOnUse" gradientTransform="translate(29.8225 29.7151) scale(28.9136 28.9136)">
<stop stop-color="white" stop-opacity="0.1"/>
<stop offset="1" stop-color="white" stop-opacity="0"/>
</radialGradient>
</defs>
</svg>
