<svg width="24" height="24" viewBox="0 0 24 24" fill="none" xmlns="http://www.w3.org/2000/svg">
<path d="M4.30039 20.85C3.41706 20.85 2.67122 20.5459 2.06289 19.9375C1.45456 19.3292 1.15039 18.5834 1.15039 17.7V6.30002C1.15039 5.41669 1.45456 4.67086 2.06289 4.06252C2.67122 3.45419 3.41706 3.15002 4.30039 3.15002H19.7004C20.5837 3.15002 21.3296 3.45419 21.9379 4.06252C22.5462 4.67086 22.8504 5.41669 22.8504 6.30002V17.7C22.8504 18.5834 22.5462 19.3292 21.9379 19.9375C21.3296 20.5459 20.5837 20.85 19.7004 20.85H4.30039ZM12.0004 14.075L19.7004 9.07502V6.30002L12.0004 11.3L4.30039 6.30002V9.07502L12.0004 14.075Z" fill="#19213D"/>
</svg>
