<svg width="62" height="62" viewBox="0 0 62 62" fill="none" xmlns="http://www.w3.org/2000/svg">
<g clip-path="url(#clip0_423_1014)">
<path d="M21.094 61.3257C26.7349 61.3257 31.313 56.7476 31.313 51.1067V40.8877H21.094C15.4531 40.8877 10.875 45.4658 10.875 51.1067C10.875 56.7476 15.4531 61.3257 21.094 61.3257Z" fill="#0ACF83"/>
<path d="M10.875 30.6687C10.875 25.0278 15.4531 20.4497 21.094 20.4497H31.313V40.8877H21.094C15.4531 40.8877 10.875 36.3096 10.875 30.6687Z" fill="#A259FF"/>
<path d="M10.875 10.2307C10.875 4.58982 15.4531 0.0117188 21.094 0.0117188H31.313V20.4497H21.094C15.4531 20.4497 10.875 15.8716 10.875 10.2307Z" fill="#F24E1E"/>
<path d="M31.3125 0.0117188H41.5315C47.1724 0.0117188 51.7505 4.58982 51.7505 10.2307C51.7505 15.8716 47.1724 20.4497 41.5315 20.4497H31.3125V0.0117188Z" fill="#FF7262"/>
<path d="M51.7505 30.6687C51.7505 36.3096 47.1724 40.8877 41.5315 40.8877C35.8906 40.8877 31.3125 36.3096 31.3125 30.6687C31.3125 25.0278 35.8906 20.4497 41.5315 20.4497C47.1724 20.4497 51.7505 25.0278 51.7505 30.6687Z" fill="#1ABCFE"/>
</g>
<defs>
<clipPath id="clip0_423_1014">
<rect width="61.3139" height="61.3139" fill="white" transform="translate(0.65625 0.0117188)"/>
</clipPath>
</defs>
</svg>
