<svg width="50" height="68" viewBox="0 0 50 68" fill="none" xmlns="http://www.w3.org/2000/svg">
<path d="M0.5 54.3906L0.906361 53.8192L20.1246 17.2081L20.1652 16.8204L11.6936 0.843878C10.9835 -0.494405 8.98516 -0.156183 8.75241 1.34199L0.5 54.3906Z" fill="#FFC24A"/>
<path d="M0.742188 53.9547L1.0494 53.3532L20.0644 17.1256L11.6159 1.08408C10.9135 -0.240364 9.13011 0.0972812 8.89793 1.57989L0.742188 53.9547Z" fill="#FFA712"/>
<path d="M0.742188 53.9542L1.0494 53.3527L20.0644 17.1251L11.6159 1.08359C10.9135 -0.240853 9.13011 0.096793 8.89793 1.5794L0.742188 53.9542Z" fill="black"/>
<path d="M26.3386 28.9053L32.6465 22.4195L26.3369 10.3261C25.7378 9.18134 24.0655 9.17808 23.4728 10.3261L20.1016 16.7831V17.3327L26.3386 28.9053Z" fill="#F4BD62"/>
<path d="M26.2275 28.635L32.3599 22.3295L26.2275 10.6056C25.6453 9.49104 24.2305 9.37613 23.6544 10.4903L20.2655 17.0434L20.1641 17.3785L26.2275 28.635Z" fill="#FFA50E"/>
<path d="M26.2314 28.635L32.3638 22.3295L26.2314 10.6056C25.6492 9.49104 24.2345 9.37613 23.6583 10.4903L20.2694 17.0434L20.168 17.3785L26.2314 28.635Z" fill="black"/>
<path d="M20.1219 16.7451L0.5 54.3902L0.684135 54.2042L1.3533 53.9313L25.9452 29.3333L26.2564 28.482L20.1219 16.7451Z" fill="#F6820C"/>
<path d="M27.1288 66.7953L49.3849 54.3334L43.0311 15.0339C42.832 13.8044 41.3298 13.3182 40.4534 14.1999L0.5 54.3902L22.6284 66.7945C23.3162 67.18 24.0909 67.3825 24.8786 67.3826C25.6663 67.3828 26.441 67.1807 27.129 66.7955" fill="#FDE068"/>
<path d="M49.1868 54.2295L42.8795 15.2298C42.6824 14.0095 41.4325 13.5047 40.5627 14.3796L0.75 54.314L22.6353 66.5938C24.023 67.3717 25.7132 67.3721 27.1017 66.595L49.1868 54.2295Z" fill="#FCCA3F"/>
<path d="M27.1288 66.4285C25.7315 67.2118 24.0267 67.2114 22.6282 66.4273L0.67801 54.2015L0.5 54.3904L22.6284 66.7947C24.0269 67.5788 25.73 67.5788 27.129 66.7957L49.3851 54.3338L49.3306 53.9971L27.1288 66.4285Z" fill="#EEAB37"/>
</svg>
