<svg width="51" height="50" viewBox="0 0 51 50" fill="none" xmlns="http://www.w3.org/2000/svg">
<g clip-path="url(#clip0_423_985)">
<path d="M0.984375 0.94165H50.0355V49.9927H0.984375V0.94165Z" fill="#F0DB4F"/>
<path d="M46.0213 38.2942C45.6623 36.0561 44.2028 34.1771 39.8806 32.4239C38.3792 31.7339 36.7053 31.2397 36.2064 30.1019C36.0292 29.4398 36.0059 29.0668 36.1178 28.6658C36.4395 27.365 37.9922 26.9593 39.2231 27.3323C40.0158 27.5981 40.7665 28.2089 41.2187 29.1834C43.3356 27.8126 43.3309 27.8219 44.809 26.8801C44.2681 26.0408 43.979 25.6538 43.6247 25.2948C42.3518 23.8727 40.6173 23.1406 37.843 23.1966C37.3627 23.2572 36.8779 23.3224 36.3976 23.3831C35.0128 23.7328 33.6932 24.4602 32.9192 25.4347C30.5972 28.0691 31.2593 32.6804 34.0849 34.5781C36.8685 36.667 40.9576 37.1426 41.4799 39.0962C41.9881 41.4882 39.7221 42.2621 37.47 41.9871C35.8101 41.642 34.8869 40.7981 33.8891 39.2641C32.052 40.3272 32.052 40.3272 30.1636 41.4136C30.6113 42.3927 31.0821 42.8357 31.8329 43.6843C35.3858 47.2885 44.2774 47.1113 45.8721 41.656C45.9373 41.4695 46.3664 40.2199 46.0213 38.2942ZM27.6504 23.4856H23.0624C23.0624 27.4489 23.0438 31.3842 23.0438 35.3474C23.0438 37.8699 23.1743 40.1826 22.764 40.8913C22.0926 42.2854 20.3534 42.1129 19.5608 41.8424C18.7541 41.4461 18.3438 40.8819 17.8682 40.0847C17.7377 39.8562 17.6398 39.679 17.6071 39.665C16.3622 40.425 15.1219 41.1897 13.877 41.9497C14.4971 43.2226 15.411 44.3277 16.5813 45.0457C18.3298 46.0948 20.6798 46.4165 23.137 45.8523C24.7363 45.3861 26.1164 44.4209 26.8391 42.9522C27.8836 41.0265 27.6598 38.6952 27.6504 36.1168C27.6737 31.911 27.6504 27.7053 27.6504 23.4856Z" fill="#323330"/>
</g>
<defs>
<clipPath id="clip0_423_985">
<rect width="49.0511" height="49.0511" fill="white" transform="translate(0.984375 0.94165)"/>
</clipPath>
</defs>
</svg>
