<svg width="52" height="70" viewBox="0 0 52 70" fill="none" xmlns="http://www.w3.org/2000/svg">
<path d="M17.1217 53.7475C17.1217 53.7475 14.4925 55.347 18.9518 55.8053C24.3083 56.4898 27.18 56.3767 33.1228 55.234C33.1228 55.234 34.7223 56.2606 36.8947 57.0641C23.5227 62.7777 6.60951 56.7219 17.1232 53.7505L17.1217 53.7475ZM15.4076 46.3198C15.4076 46.3198 12.5508 48.4922 17.0071 48.949C22.8353 49.5203 27.4226 49.6334 35.2937 48.0354C35.2937 48.0354 36.3204 49.1781 38.0359 49.7495C21.9217 54.5495 3.86429 50.2048 15.4076 46.3198ZM46.9516 59.3481C46.9516 59.3481 48.8948 60.9476 44.7792 62.2049C37.1223 64.4903 12.6654 65.1763 5.80752 62.2049C3.4075 61.1782 7.97989 59.6754 9.46483 59.4626C10.9528 59.1204 11.7503 59.1204 11.7503 59.1204C9.12261 57.2903 -5.73579 62.8923 4.20651 64.4769C31.5203 68.9333 54.0341 62.5337 46.9486 59.3347L46.9516 59.3481ZM18.3775 38.5484C18.3775 38.5484 5.9206 41.5198 13.9197 42.5479C17.3478 43.0047 24.0911 42.8902 30.3761 42.4334C35.5184 41.9766 40.6621 41.0615 40.6621 41.0615C40.6621 41.0615 38.832 41.862 37.5762 42.661C24.8901 45.9746 0.547712 44.4912 7.52012 41.0615C13.4629 38.2047 18.3775 38.532 18.3775 38.532V38.5484ZM40.6636 51.0053C53.4627 44.3766 47.5199 37.977 43.4058 38.7775C42.3792 39.0067 41.9179 39.2343 41.9179 39.2343C41.9179 39.2343 42.2601 38.5499 43.0606 38.3207C51.1743 35.4639 57.5753 46.8912 40.4315 51.349C40.4315 51.349 40.5461 51.2344 40.6606 51.0068L40.6636 51.0053ZM19.6363 69.0612C31.9786 69.8617 50.838 68.6044 51.2933 62.7762C51.2933 62.7762 50.3797 65.0617 41.1219 66.7758C30.6082 68.719 17.58 68.4899 9.92014 67.2326C9.92014 67.2326 11.5197 68.6029 19.6363 69.0612Z" fill="#4E7896"/>
<path d="M32.8921 0.834473C32.8921 0.834473 39.9776 8.03602 26.1488 18.8919C15.0638 27.6915 23.6194 32.7207 26.1488 38.4343C19.6347 32.6061 14.9492 27.4638 18.1483 22.6623C22.8352 15.5768 35.7489 12.1486 32.8921 0.834473ZM29.2348 33.6342C32.5484 37.4061 28.3197 40.8358 28.3197 40.8358C28.3197 40.8358 36.7771 36.4911 32.8906 31.1196C29.3493 25.9774 26.6056 23.4628 41.461 14.8909C41.461 14.8909 18.0322 20.7191 29.2333 33.6328L29.2348 33.6342Z" fill="#F58219"/>
</svg>
