<svg width="24" height="24" viewBox="0 0 24 24" fill="none" xmlns="http://www.w3.org/2000/svg">
<path d="M12 22C17.5228 22 22 17.5228 22 12C22 6.47715 17.5228 2 12 2C6.47715 2 2 6.47715 2 12C2 17.5228 6.47715 22 12 22Z" fill="#19213D"/>
<path fill-rule="evenodd" clip-rule="evenodd" d="M9.38733 7.14195C9.38733 7.7645 8.91333 8.2683 8.17208 8.2683C7.45968 8.2683 6.98563 7.7645 7.00033 7.14195C6.98563 6.48915 7.45963 6 8.18628 6C8.91333 6 9.37313 6.48915 9.38733 7.14195ZM7.05993 16.4095V9.1581H9.31353V16.409L7.05993 16.4095Z" fill="#F6F8FC"/>
<path fill-rule="evenodd" clip-rule="evenodd" d="M11.1201 11.4723C11.1201 10.5678 11.0903 9.79674 11.0605 9.15909H13.018L13.1221 10.1525H13.1666C13.4632 9.69269 14.2044 8.99634 15.4055 8.99634C16.8881 8.99634 18.0002 9.97509 18.0002 12.1095V16.4105H15.7466V12.3919C15.7466 11.4572 15.4207 10.8199 14.6051 10.8199C13.9821 10.8199 13.6117 11.2499 13.4636 11.6648C13.404 11.8134 13.3747 12.0206 13.3747 12.2287V16.4105H11.121V11.4723H11.1201Z" fill="#F6F8FC"/>
</svg>
