<svg width="24" height="24" viewBox="0 0 24 24" fill="none" xmlns="http://www.w3.org/2000/svg">
  <path d="M12 22C17.5228 22 22 17.5228 22 12C22 6.47715 17.5228 2 12 2C6.47715 2 2 6.47715 2 12C2 17.5228 6.47715 22 12 22Z" fill="white"/>
  <path fill-rule="evenodd" clip-rule="evenodd" d="M9.38733 7.14195C9.38733 7.7645 8.91333 8.2683 8.17208 8.2683C7.45968 8.2683 6.98563 7.7645 7.00033 7.14195C6.98563 6.48915 7.45963 6 8.18628 6C8.91333 6 9.37313 6.48915 9.38733 7.14195ZM7.05993 16.4095V9.1581H9.31353V16.409L7.05993 16.4095Z" fill="#2889FC"/>
  <path fill-rule="evenodd" clip-rule="evenodd" d="M11.1201 11.4725C11.1201 10.5681 11.0903 9.79698 11.0605 9.15933H13.018L13.1221 10.1527H13.1666C13.4632 9.69293 14.2044 8.99658 15.4055 8.99658C16.8881 8.99658 18.0002 9.97533 18.0002 12.1097V16.4107H15.7466V12.3921C15.7466 11.4574 15.4207 10.8202 14.6051 10.8202C13.9821 10.8202 13.6117 11.2502 13.4636 11.6651C13.404 11.8136 13.3747 12.0208 13.3747 12.2289V16.4107H11.121V11.4725H11.1201Z" fill="#2889FC"/>
</svg>
