<svg width="22" height="18" viewBox="0 0 22 18" fill="none" xmlns="http://www.w3.org/2000/svg">
  <path d="M3.15 17.7C2.26667 17.7 1.52083 17.3958 0.9125 16.7875C0.304167 16.1792 0 15.4333 0 14.55V3.15C0 2.26667 0.304167 1.52083 0.9125 0.9125C1.52083 0.304167 2.26667 0 3.15 0H18.55C19.4333 0 20.1792 0.304167 20.7875 0.9125C21.3958 1.52083 21.7 2.26667 21.7 3.15V14.55C21.7 15.4333 21.3958 16.1792 20.7875 16.7875C20.1792 17.3958 19.4333 17.7 18.55 17.7H3.15ZM10.85 10.925L18.55 5.925V3.15L10.85 8.15L3.15 3.15V5.925L10.85 10.925Z" fill="#19213D"/>
</svg>
