<svg width="31" height="31" viewBox="0 0 31 31" fill="none" xmlns="http://www.w3.org/2000/svg">
<path d="M25.7687 27.125C23.0778 27.125 20.4191 26.5384 17.7927 25.3651C15.1663 24.1918 12.7767 22.5288 10.624 20.376C8.47118 18.2233 6.80816 15.8337 5.6349 13.2073C4.46163 10.5809 3.875 7.92222 3.875 5.23125C3.875 4.84375 4.00417 4.52083 4.2625 4.2625C4.52083 4.00417 4.84375 3.875 5.23125 3.875H10.4625C10.7639 3.875 11.033 3.97726 11.2698 4.18177C11.5066 4.38628 11.6465 4.62847 11.6896 4.90833L12.5292 9.42917C12.5722 9.77361 12.5615 10.0642 12.4969 10.301C12.4323 10.5378 12.3139 10.7424 12.1417 10.9146L9.00937 14.0792C9.43993 14.8757 9.95122 15.6453 10.5432 16.388C11.1352 17.1307 11.7865 17.8465 12.4969 18.5354C13.1642 19.2028 13.8639 19.8217 14.5958 20.3922C15.3278 20.9627 16.1028 21.4847 16.9208 21.9583L19.9562 18.9229C20.15 18.7292 20.403 18.5839 20.7151 18.487C21.0273 18.3901 21.334 18.3632 21.6354 18.4062L26.0917 19.3104C26.3931 19.3965 26.6406 19.5526 26.8344 19.7786C27.0281 20.0047 27.125 20.2576 27.125 20.5375V25.7687C27.125 26.1562 26.9958 26.4792 26.7375 26.7375C26.4792 26.9958 26.1562 27.125 25.7687 27.125Z" fill="#19213D"/>
</svg>
