<svg width="62" height="62" viewBox="0 0 62 62" fill="none" xmlns="http://www.w3.org/2000/svg">
<g clip-path="url(#clip0_423_924)">
<path d="M55.8785 4.30125C55.008 6.41766 53.8823 8.29392 52.6365 9.97508C47.1427 4.37627 39.4574 0.818848 30.9766 0.818848C14.3154 0.818848 0.701172 14.358 0.701172 31.0793C0.701172 39.8153 4.43871 47.6806 10.3678 53.2343L11.4935 54.2401C16.732 58.668 23.5466 61.3548 30.9617 61.3548C46.8725 61.3548 59.9764 48.9415 61.1021 33.2709C62.0028 25.6606 59.691 15.9191 55.8785 4.30125ZM14.7509 53.4896C13.8803 54.6154 12.259 54.7355 11.1334 53.8648C10.0076 52.9942 9.88748 51.3732 10.7581 50.2473C11.6287 49.1216 13.2498 49.0014 14.3755 49.8721C15.4412 50.7427 15.6215 52.3638 14.7509 53.4896ZM55.6986 44.4384C48.2685 54.3602 32.2977 50.9978 22.1208 51.4931C22.1208 51.4931 20.3046 51.6132 18.5034 51.8684C18.5034 51.8684 19.1939 51.5533 20.0644 51.238C27.2392 48.7464 30.6167 48.236 34.9845 45.9995C43.1651 41.8116 51.3306 32.6403 52.9667 23.1539C49.8446 32.2651 40.3582 40.1305 31.7423 43.3127C25.8133 45.5041 15.141 47.6205 15.141 47.6205L14.7058 47.3654C7.47089 43.808 7.21576 28.0774 20.4547 23.0189C26.2637 20.7674 31.7574 22.0131 38.0616 20.5272C44.7411 18.9662 52.4864 13.9677 55.5935 7.42331C59.0608 17.9755 63.3087 34.3216 55.6986 44.4384Z" fill="#6CB52D"/>
<path d="M14.7503 53.4896C13.8797 54.6154 12.2584 54.7355 11.1328 53.8648C10.007 52.9942 9.88688 51.3732 10.7575 50.2473C11.6281 49.1216 13.2492 49.0014 14.3749 49.8721C15.4406 50.7427 15.6209 52.3639 14.7503 53.4896ZM55.698 44.4385C48.2679 54.3602 32.2971 50.9979 22.1202 51.4931C22.1202 51.4931 20.304 51.6132 18.5028 51.8685C18.5028 51.8685 19.1933 51.5533 20.0638 51.238C27.2386 48.7464 30.6161 48.236 34.9839 45.9995C43.1645 41.8117 51.33 32.6403 52.9661 23.154C49.8439 32.2651 40.3576 40.1305 31.7417 43.3127C25.8127 45.5042 15.1404 47.6206 15.1404 47.6206L14.7052 47.3654C7.47029 43.808 7.21516 28.0774 20.4541 23.0189C26.2631 20.7674 31.7568 22.0131 38.061 20.5272C44.7405 18.9662 52.4858 13.9678 55.5929 7.42334C59.0602 17.9755 63.3081 34.3216 55.698 44.4385Z" fill="white"/>
</g>
<defs>
<clipPath id="clip0_423_924">
<rect width="60.8696" height="60.8696" fill="white" transform="translate(0.546875 0.723633)"/>
</clipPath>
</defs>
</svg>
