<svg width="24" height="24" viewBox="0 0 24 24" fill="none" xmlns="http://www.w3.org/2000/svg">
  <path d="M4.30039 20.8499C3.41706 20.8499 2.67122 20.5457 2.06289 19.9374C1.45456 19.3291 1.15039 18.5832 1.15039 17.6999V6.2999C1.15039 5.41657 1.45456 4.67074 2.06289 4.0624C2.67122 3.45407 3.41706 3.1499 4.30039 3.1499H19.7004C20.5837 3.1499 21.3296 3.45407 21.9379 4.0624C22.5462 4.67074 22.8504 5.41657 22.8504 6.2999V17.6999C22.8504 18.5832 22.5462 19.3291 21.9379 19.9374C21.3296 20.5457 20.5837 20.8499 19.7004 20.8499H4.30039ZM12.0004 14.0749L19.7004 9.0749V6.2999L12.0004 11.2999L4.30039 6.2999V9.0749L12.0004 14.0749Z" fill="white"/>
</svg>
