<svg width="1726" height="698" viewBox="0 0 1726 698" fill="none" xmlns="http://www.w3.org/2000/svg">
<g clip-path="url(#clip0_423_1473)">
<path d="M78 698C33.8172 698 -2 662.183 -2 618L-2.00003 -2L1726 -2.00008L1726 618C1726 662.183 1690.18 698 1646 698L78 698Z" fill="white"/>
<mask id="mask0_423_1473" style="mask-type:alpha" maskUnits="userSpaceOnUse" x="0" y="202" width="1731" height="850">
<rect x="0.888672" y="202.038" width="1729.89" height="849.327" fill="#D9D9D9"/>
</mask>
<g mask="url(#mask0_423_1473)">
<path d="M2025.39 1383.3C2025.14 1383.3 2024.89 1383.18 2024.7 1382.99L1943.3 1299.62L1709.91 1299.69C1709.6 1299.7 1709.35 1299.57 1709.17 1299.33L1045.03 435.166L663.759 433.898L60.7296 1299.88C60.5449 1300.13 60.2978 1300.26 59.9884 1300.26L-322.885 1300.42C-323.38 1300.42 -323.815 1299.99 -323.816 1299.49C-323.818 1299 -323.387 1298.56 -322.892 1298.56L59.487 1298.4L662.516 432.417C662.701 432.169 662.948 432.044 663.258 432.043L1045.46 433.308C1045.76 433.307 1046.01 433.43 1046.2 433.677L1710.34 1297.84L1943.66 1297.76C1943.91 1297.76 1944.16 1297.89 1944.34 1298.07L2026.06 1381.75C2026.43 1382.12 2026.43 1382.68 2026.06 1383.05C2025.88 1383.17 2025.63 1383.3 2025.39 1383.3Z" fill="#EBEFF6"/>
<path d="M2052.1 1096.61L-321.992 1095.43C-322.487 1095.43 -322.922 1095 -322.923 1094.5C-322.925 1094.01 -322.432 1093.51 -321.998 1093.57L2052.1 1094.75C2052.59 1094.75 2053.03 1095.18 2053.03 1095.68C2053.03 1096.17 2052.66 1096.6 2052.1 1096.61Z" fill="#EBEFF6"/>
<path d="M2052.79 955.903L-321.313 953.239C-321.808 953.241 -322.242 952.809 -322.244 952.314C-322.246 951.819 -321.814 951.384 -321.319 951.383L2052.78 954.047C2053.28 954.045 2053.71 954.477 2053.71 954.972C2053.71 955.467 2053.28 955.902 2052.79 955.903Z" fill="#EBEFF6"/>
<path d="M2053.23 852.573L-320.873 848.857C-321.368 848.858 -321.802 848.427 -321.804 847.932C-321.806 847.437 -321.374 847.002 -320.879 847L2053.23 850.717C2053.72 850.715 2054.15 851.147 2054.16 851.641C2054.16 852.198 2053.73 852.571 2053.23 852.573Z" fill="#EBEFF6"/>
<path d="M2053.58 775.477C2053.46 775.477 2053.27 775.416 2053.15 775.355L2049.43 773.511L-320.533 769.038C-321.028 769.04 -321.462 768.608 -321.464 768.113C-321.466 767.618 -321.034 767.184 -320.539 767.182L2049.61 771.716C2049.73 771.716 2049.92 771.777 2050.04 771.839L2053.95 773.805C2054.38 774.051 2054.57 774.607 2054.38 775.041C2054.26 775.289 2053.89 775.476 2053.58 775.477Z" fill="#EBEFF6"/>
<path d="M-243.619 1373.09C-243.866 1373.09 -244.052 1373.03 -244.238 1372.84C-244.611 1372.47 -244.675 1371.92 -244.305 1371.55L-76.1605 1186.2C-75.9755 1186.02 -75.7285 1185.89 -75.481 1185.89L2044.99 1186.1C2045.24 1186.1 2045.42 1186.16 2045.61 1186.35L2052.31 1191.95C2052.69 1192.26 2052.75 1192.88 2052.44 1193.25C2052.13 1193.62 2051.51 1193.69 2051.14 1193.38L2044.75 1187.96L-74.9795 1187.75L-242.877 1372.78C-243.124 1372.96 -243.371 1373.09 -243.619 1373.09Z" fill="#EBEFF6"/>
<path d="M1521.17 1381.04C1520.86 1381.04 1520.55 1380.85 1520.36 1380.54L990.145 434.491C989.896 434.059 990.079 433.501 990.511 433.252C990.944 433.003 991.501 433.187 991.75 433.619L1521.97 1379.61C1522.22 1380.04 1522.03 1380.6 1521.6 1380.85C1521.48 1380.97 1521.35 1381.04 1521.17 1381.04Z" fill="#EBEFF6"/>
<path d="M1773.31 1382.14C1773 1382.14 1772.75 1382.01 1772.56 1381.77L1709.48 1299.7L60.4217 1300.32L9.1994 1373.82C8.89154 1374.25 8.33493 1374.31 7.90094 1374.07C7.46677 1373.76 7.40292 1373.2 7.6489 1372.77L59.1172 1298.84C59.302 1298.59 59.6109 1298.46 59.8584 1298.46L1709.84 1297.84C1710.15 1297.84 1710.4 1297.96 1710.58 1298.21L1773.98 1380.65C1774.29 1381.08 1774.23 1381.64 1773.8 1381.95C1773.68 1382.07 1773.49 1382.14 1773.31 1382.14Z" fill="#EBEFF6"/>
<path d="M1269.09 1379.87C1268.72 1379.88 1268.35 1379.63 1268.22 1379.26L935.571 434.187C935.384 433.692 935.629 433.196 936.124 433.009C936.618 432.822 937.114 433.067 937.301 433.562L1269.95 1378.63C1270.14 1379.13 1269.9 1379.62 1269.4 1379.81C1269.28 1379.87 1269.15 1379.87 1269.09 1379.87Z" fill="#EBEFF6"/>
<path d="M260.597 1375.35C260.474 1375.35 260.35 1375.35 260.164 1375.23C259.73 1374.98 259.48 1374.43 259.726 1373.99L717.09 432.722C717.336 432.288 717.892 432.038 718.326 432.284C718.76 432.53 719.009 433.086 718.763 433.52L261.462 1374.85C261.277 1375.16 260.969 1375.35 260.597 1375.35Z" fill="#EBEFF6"/>
<path d="M1016.95 1378.71C1016.52 1378.71 1016.09 1378.41 1016.02 1377.91L880.935 433.82C880.871 433.326 881.241 432.829 881.736 432.766C882.231 432.702 882.727 433.072 882.79 433.566L1017.88 1377.72C1017.94 1378.21 1017.57 1378.71 1017.08 1378.77C1017.01 1378.71 1017.01 1378.71 1016.95 1378.71Z" fill="#EBEFF6"/>
<path d="M512.736 1376.45C512.674 1376.45 512.551 1376.45 512.489 1376.39C511.993 1376.27 511.682 1375.71 511.866 1375.28L771.787 433.026C771.909 432.53 772.465 432.219 772.899 432.403C773.394 432.525 773.706 433.081 773.522 433.515L513.6 1375.83C513.478 1376.2 513.108 1376.45 512.736 1376.45Z" fill="#EBEFF6"/>
<path d="M764.814 1377.61L764.752 1377.61C764.256 1377.55 763.822 1377.12 763.882 1376.63L826.299 433.454C826.36 432.959 826.792 432.586 827.286 432.585C827.782 432.645 828.216 433.076 828.156 433.571L765.739 1376.74C765.74 1377.24 765.309 1377.61 764.814 1377.61Z" fill="#EBEFF6"/>
<path d="M-248.962 533.607L-319.437 533.42C-319.932 533.421 -320.367 532.99 -320.368 532.495C-320.37 532 -319.938 531.565 -319.443 531.563L-249.154 531.751L-211.455 519.369C-211.331 519.368 -211.269 519.306 -211.145 519.306L-137.268 519.543L-104.639 507.982C-104.515 507.92 -104.453 507.92 -104.329 507.919L-32.9883 508.165L-4.81161 497.363C-4.68808 497.3 -4.56433 497.3 -4.50247 497.3L64.4873 497.492L88.7065 487.384C88.83 487.322 88.8919 487.322 89.0775 487.321L155.84 487.521L176.534 478.044C176.658 477.982 176.782 477.919 176.905 477.981L241.564 478.188L259.105 469.279C259.229 469.217 259.352 469.216 259.538 469.154L322.217 469.368L336.913 460.964C337.037 460.902 337.16 460.777 337.346 460.839L398.168 461.059L410.33 453.159C410.453 453.035 410.577 453.034 410.825 453.034L469.853 453.199L479.727 445.801C479.912 445.677 480.035 445.615 480.283 445.614L537.64 445.785L553.06 431.995C553.246 431.871 553.431 431.746 553.678 431.745L663.134 432.106C663.629 432.104 664.064 432.536 664.065 433.031C664.067 433.526 663.573 433.899 663.141 433.962L554.056 433.6L538.636 447.39C538.451 447.514 538.265 447.577 538.018 447.64L480.599 447.469L470.725 454.866C470.539 454.991 470.416 455.053 470.168 455.054L411.078 454.889L398.917 462.789C398.794 462.913 398.67 462.914 398.422 462.915L337.6 462.694L322.903 471.098C322.78 471.16 322.656 471.223 322.471 471.223L259.853 470.947L242.312 479.856C242.189 479.918 242.065 479.981 241.88 479.981L177.221 479.774L156.527 489.251C156.403 489.313 156.279 489.314 156.156 489.314L89.3932 489.114L65.174 499.222C65.0504 499.284 64.9267 499.285 64.8029 499.285L-4.24869 499.093L-32.4254 509.896C-32.5489 509.958 -32.6727 509.959 -32.7345 509.959L-104.076 509.713L-136.705 521.273C-136.828 521.336 -136.89 521.336 -137.014 521.336L-211.015 521.161L-248.715 533.544C-248.777 533.606 -248.9 533.607 -248.962 533.607Z" fill="#EBEFF6"/>
<path d="M2054.48 572.714C2054.36 572.714 2054.3 572.715 2054.17 572.653L2040.24 568.061L-319.587 561.449C-320.082 561.451 -320.516 561.019 -320.518 560.524C-320.52 560.029 -320.088 559.594 -319.593 559.593L2040.35 566.205C2040.48 566.204 2040.54 566.204 2040.66 566.265L2054.79 570.919C2055.28 571.102 2055.53 571.597 2055.35 572.092C2055.22 572.464 2054.85 572.713 2054.48 572.714Z" fill="#EBEFF6"/>
<path d="M2054.34 601.424C2054.21 601.424 2054.15 601.424 2054.03 601.363L2051.42 600.444L-319.72 594.119C-320.215 594.12 -320.65 593.689 -320.651 593.194C-320.653 592.699 -320.16 592.264 -319.727 592.262L2051.6 598.587C2051.73 598.587 2051.79 598.587 2051.91 598.648L2054.7 599.628C2055.2 599.812 2055.44 600.306 2055.26 600.802C2055.08 601.174 2054.71 601.423 2054.34 601.424Z" fill="#EBEFF6"/>
<path d="M2053.57 773.559L2049.68 773.572C2049.55 773.573 2049.37 773.512 2049.24 773.45L1467.42 483.809L242.127 479.981L-320.049 765.695C-320.481 765.944 -321.039 765.761 -321.288 765.267C-321.537 764.834 -321.354 764.277 -320.859 764.028L241.502 478.188C241.626 478.126 241.811 478.064 241.935 478.063L1467.67 481.952C1467.79 481.951 1467.97 482.013 1468.1 482.074L2049.92 771.654L2053.63 771.641C2054.13 771.639 2054.56 772.07 2054.56 772.565C2054.5 773.123 2054.07 773.557 2053.57 773.559Z" fill="#EBEFF6"/>
<path d="M2054.16 638.672L-319.895 632.728C-320.39 632.73 -320.824 632.299 -320.826 631.804C-320.828 631.309 -320.396 630.874 -319.901 630.872L2054.15 636.816C2054.64 636.814 2055.08 637.246 2055.08 637.741C2055.08 638.298 2054.71 638.67 2054.16 638.672Z" fill="#EBEFF6"/>
<path d="M2053.26 843.972C2053.14 843.973 2052.95 843.911 2052.83 843.85L1992.63 810.463L-265.705 806.528L-320.355 837.656C-320.787 837.905 -321.344 837.783 -321.594 837.289C-321.843 836.856 -321.721 836.299 -321.227 836.05L-266.392 804.798C-266.269 804.736 -266.207 804.674 -265.959 804.673L1992.88 808.606C1993.06 808.605 1993.18 808.666 1993.31 808.728L2053.69 842.238C2054.12 842.484 2054.31 843.04 2054.07 843.474C2053.88 843.784 2053.57 843.971 2053.26 843.972Z" fill="#EBEFF6"/>
<path d="M2054.01 684.583L-320.104 679.134C-320.599 679.136 -321.034 678.705 -321.035 678.21C-321.037 677.715 -320.667 677.218 -320.11 677.278L2053.94 682.727C2054.43 682.725 2054.87 683.157 2054.87 683.652C2054.93 684.147 2054.5 684.581 2054.01 684.583Z" fill="#EBEFF6"/>
<path d="M2052.88 930.287C2052.7 930.288 2052.51 930.227 2052.39 930.165L2005.01 900.508L-271.328 897.44L-320.715 929.477C-321.147 929.726 -321.705 929.605 -322.015 929.234C-322.264 928.802 -322.142 928.245 -321.772 927.934L-272.138 895.772C-272.015 895.648 -271.829 895.647 -271.644 895.647L2005.26 898.712C2005.44 898.712 2005.63 898.773 2005.75 898.834L2053.31 928.615C2053.75 928.861 2053.87 929.479 2053.63 929.913C2053.5 930.1 2053.19 930.286 2052.88 930.287Z" fill="#EBEFF6"/>
<path d="M2053.71 740.58L-320.402 735.688C-320.896 735.69 -321.331 735.258 -321.333 734.763C-321.335 734.268 -320.903 733.833 -320.408 733.832L2053.7 738.724C2054.2 738.722 2054.63 739.154 2054.63 739.648C2054.63 740.143 2054.26 740.578 2053.71 740.58Z" fill="#EBEFF6"/>
<path d="M2053.4 810.622L1992.82 810.524C1992.63 810.525 1992.51 810.463 1992.39 810.402L1386.83 474.562L322.78 471.16L-265.52 806.404C-265.644 806.466 -265.829 806.528 -265.953 806.529L-320.65 806.41C-321.145 806.412 -321.579 805.981 -321.581 805.486C-321.583 804.991 -321.151 804.556 -320.656 804.554L-266.207 804.674L322.093 469.368C322.216 469.306 322.34 469.244 322.526 469.243L1387.01 472.643C1387.2 472.642 1387.32 472.704 1387.45 472.765L1993 808.605L2053.33 808.704C2053.82 808.702 2054.26 809.134 2054.26 809.629C2054.32 810.185 2053.95 810.62 2053.4 810.622Z" fill="#EBEFF6"/>
<path d="M2054.58 547.655C2054.52 547.655 2054.39 547.655 2054.33 547.594L2030.67 540.251L1955.56 540.019C1955.43 540.019 1955.37 540.019 1955.25 539.958L1917.27 527.468L1844.7 527.227C1844.57 527.227 1844.51 527.227 1844.39 527.166L1811.37 515.525L1741.14 515.337C1741.02 515.338 1740.89 515.338 1740.83 515.276L1712.21 504.363L1644.21 504.167C1644.08 504.167 1643.96 504.168 1643.83 504.106L1619.11 493.922L1553.15 493.719C1553.03 493.719 1552.91 493.72 1552.78 493.658L1531.59 484.08L1467.61 483.87C1467.49 483.871 1467.3 483.809 1467.18 483.748L1449.14 474.777L1387.02 474.561C1386.83 474.562 1386.71 474.5 1386.58 474.439L1371.33 466.015L1311.01 465.793C1310.82 465.793 1310.64 465.732 1310.51 465.671L1297.8 457.733L1239.14 457.567C1238.96 457.568 1238.77 457.506 1238.59 457.383L1228.16 449.933L1171.12 449.761C1170.87 449.762 1170.68 449.7 1170.5 449.515L1162.18 442.491L1106.62 442.314C1106.37 442.315 1106.12 442.192 1105.94 442.007L1099.48 435.409L1045.4 435.226C1044.91 435.228 1044.47 434.796 1044.47 434.301C1044.47 433.806 1044.9 433.372 1045.39 433.37L1099.91 433.551C1100.15 433.55 1100.4 433.673 1100.59 433.858L1107.04 440.456L1162.55 440.633C1162.79 440.633 1162.98 440.694 1163.17 440.879L1171.48 447.903L1228.53 448.075C1228.71 448.075 1228.9 448.136 1229.09 448.259L1239.51 455.709L1298.16 455.876C1298.35 455.875 1298.54 455.937 1298.66 455.998L1311.37 463.935L1371.7 464.158C1371.88 464.157 1372.01 464.219 1372.13 464.28L1387.38 472.704L1449.44 472.92C1449.57 472.92 1449.75 472.981 1449.88 473.042L1467.91 482.013L1531.83 482.223C1531.95 482.222 1532.08 482.222 1532.2 482.283L1553.39 491.862L1619.29 492.065C1619.41 492.064 1619.54 492.064 1619.66 492.125L1644.39 502.31L1712.39 502.506C1712.51 502.505 1712.63 502.505 1712.69 502.567L1741.32 513.48L1811.55 513.668C1811.67 513.668 1811.73 513.668 1811.86 513.729L1844.87 525.37L1917.45 525.611C1917.58 525.611 1917.64 525.611 1917.76 525.672L1955.74 538.162L2030.85 538.395C2030.91 538.394 2031.04 538.394 2031.1 538.456L2054.95 545.797C2055.44 545.919 2055.69 546.475 2055.57 546.971C2055.38 547.404 2055.01 547.653 2054.58 547.655Z" fill="#EBEFF6"/>
<path d="M2054.62 540.354L2030.73 540.313C2030.67 540.313 2030.55 540.314 2030.49 540.252L1989.98 527.709L1917.4 527.468C1917.27 527.468 1917.21 527.468 1917.09 527.407L1881.66 515.713L1811.43 515.525C1811.3 515.525 1811.24 515.525 1811.12 515.464L1780.27 504.558L1712.27 504.362C1712.14 504.363 1712.02 504.363 1711.96 504.302L1685.13 494.062L1619.24 493.859C1619.11 493.86 1618.99 493.86 1618.86 493.799L1595.63 484.228L1531.71 484.018C1531.59 484.018 1531.46 484.018 1531.34 483.957L1511.39 474.931L1449.33 474.715C1449.2 474.715 1449.02 474.654 1448.89 474.592L1431.85 466.113L1371.52 465.891C1371.33 465.892 1371.21 465.83 1371.09 465.769L1356.7 457.775L1298.05 457.609C1297.86 457.609 1297.67 457.548 1297.55 457.487L1285.52 449.98L1228.41 449.808C1228.23 449.809 1228.04 449.748 1227.85 449.625L1217.99 442.544L1162.43 442.366C1162.18 442.367 1161.99 442.306 1161.81 442.121L1153.93 435.466L1099.79 435.284C1099.29 435.286 1098.86 434.854 1098.86 434.359C1098.85 433.864 1099.29 433.429 1099.78 433.428L1154.23 433.609C1154.48 433.608 1154.66 433.669 1154.85 433.854L1162.73 440.509L1218.29 440.686C1218.48 440.686 1218.67 440.747 1218.85 440.87L1228.71 447.951L1285.76 448.123C1285.95 448.123 1286.13 448.184 1286.26 448.245L1298.29 455.752L1356.94 455.918C1357.13 455.918 1357.25 455.979 1357.38 456.04L1371.76 464.034L1432.09 464.256C1432.21 464.256 1432.4 464.317 1432.52 464.379L1449.57 472.858L1511.63 473.074C1511.75 473.074 1511.87 473.073 1512 473.135L1531.95 482.161L1595.87 482.371C1595.99 482.37 1596.12 482.37 1596.24 482.431L1619.48 492.002L1685.37 492.205C1685.5 492.205 1685.62 492.205 1685.68 492.266L1712.51 502.505L1780.51 502.701C1780.63 502.701 1780.69 502.701 1780.82 502.762L1811.67 513.668L1881.83 513.856C1881.96 513.856 1882.02 513.855 1882.14 513.917L1917.58 525.611L1990.16 525.853C1990.22 525.852 1990.34 525.852 1990.4 525.914L2030.91 538.456L2054.61 538.497C2055.11 538.496 2055.54 538.927 2055.54 539.422C2055.54 539.917 2055.11 540.352 2054.62 540.354Z" fill="#EBEFF6"/>
<path d="M2054.7 527.917L1990.16 527.709C1990.1 527.709 1989.98 527.709 1989.91 527.648L1952.13 515.962L1881.97 515.774C1881.84 515.774 1881.78 515.774 1881.66 515.713L1848.52 504.815L1780.58 504.619C1780.45 504.619 1780.39 504.62 1780.27 504.558L1751.34 494.326L1685.44 494.123C1685.32 494.124 1685.19 494.124 1685.13 494.062L1659.92 484.436L1596 484.226C1595.88 484.227 1595.75 484.227 1595.63 484.166L1573.82 475.146L1511.76 474.93C1511.63 474.93 1511.51 474.931 1511.39 474.869L1492.61 466.396L1432.28 466.174C1432.16 466.174 1431.97 466.113 1431.85 466.052L1415.79 458.064L1357.14 457.898C1356.95 457.898 1356.83 457.837 1356.7 457.775L1343.13 450.212L1286.02 450.04C1285.83 450.041 1285.65 449.98 1285.52 449.918L1274.17 442.781L1218.61 442.603C1218.42 442.604 1218.24 442.543 1218.05 442.42L1208.75 435.708L1154.61 435.526C1154.11 435.527 1153.68 435.096 1153.68 434.601C1153.68 434.106 1154.11 433.671 1154.6 433.669L1209.05 433.851C1209.24 433.85 1209.42 433.911 1209.61 434.034L1218.91 440.746L1274.48 440.923C1274.66 440.923 1274.85 440.984 1274.97 441.045L1286.32 448.183L1343.37 448.355C1343.55 448.355 1343.68 448.416 1343.8 448.477L1357.38 456.04L1416.03 456.207C1416.16 456.207 1416.34 456.268 1416.47 456.329L1432.52 464.317L1492.85 464.539C1492.97 464.539 1493.1 464.538 1493.22 464.6L1512 473.073L1574.06 473.289C1574.18 473.289 1574.31 473.288 1574.43 473.35L1596.24 482.369L1660.16 482.579C1660.28 482.579 1660.4 482.578 1660.47 482.64L1685.5 492.267L1751.39 492.47C1751.52 492.469 1751.58 492.469 1751.7 492.531L1780.63 502.763L1848.57 502.959C1848.69 502.958 1848.76 502.958 1848.88 503.019L1882.02 513.917L1952.19 514.105C1952.25 514.105 1952.37 514.105 1952.43 514.166L1990.22 525.852L2054.63 526.061C2055.12 526.059 2055.56 526.491 2055.56 526.986C2055.62 527.48 2055.19 527.915 2054.7 527.917Z" fill="#EBEFF6"/>
<path d="M2054.69 525.565C2054.63 525.566 2054.5 525.566 2054.44 525.504L2022.3 516.15L1952.19 515.962C1952.13 515.962 1952.01 515.962 1951.95 515.901L1916.52 504.949L1848.58 504.753C1848.45 504.753 1848.39 504.754 1848.27 504.692L1817.17 494.468L1751.34 494.264C1751.21 494.265 1751.15 494.265 1751.03 494.204L1723.83 484.584L1659.98 484.374C1659.85 484.375 1659.73 484.375 1659.67 484.313L1635.94 475.301L1573.88 475.084C1573.75 475.085 1573.63 475.085 1573.51 475.024L1552.94 466.495L1492.61 466.273C1492.48 466.273 1492.36 466.273 1492.24 466.212L1474.45 458.169L1415.79 458.002C1415.67 458.003 1415.48 457.941 1415.36 457.88L1400.17 450.322L1343.13 450.15C1342.94 450.151 1342.82 450.09 1342.69 450.028L1329.8 442.896L1274.24 442.718C1274.05 442.719 1273.86 442.658 1273.74 442.597L1262.95 435.828L1208.81 435.646C1208.31 435.648 1207.88 435.216 1207.88 434.721C1207.88 434.226 1208.31 433.791 1208.8 433.79L1263.25 433.971C1263.44 433.97 1263.62 434.031 1263.75 434.093L1274.54 440.861L1330.1 441.039C1330.29 441.038 1330.41 441.099 1330.53 441.161L1343.43 448.293L1400.48 448.465C1400.6 448.465 1400.79 448.526 1400.91 448.587L1416.1 456.145L1474.75 456.311C1474.88 456.311 1475 456.311 1475.12 456.372L1492.91 464.415L1553.18 464.638C1553.3 464.638 1553.42 464.637 1553.55 464.699L1574.12 473.227L1636.12 473.444C1636.24 473.444 1636.36 473.443 1636.43 473.505L1660.16 482.517L1724.01 482.728C1724.13 482.727 1724.2 482.727 1724.32 482.788L1751.52 492.408L1817.35 492.611C1817.47 492.61 1817.54 492.61 1817.66 492.672L1848.76 502.896L1916.63 503.092C1916.69 503.092 1916.82 503.092 1916.88 503.153L1952.31 514.105L2022.41 514.293C2022.48 514.293 2022.6 514.293 2022.66 514.354L2054.93 523.708C2055.43 523.83 2055.67 524.386 2055.55 524.882C2055.49 525.315 2055.12 525.564 2054.69 525.565Z" fill="#EBEFF6"/>
<path d="M2054.72 516.284L2022.42 516.211C2022.36 516.212 2022.23 516.212 2022.17 516.15L1984.52 505.206L1916.64 505.01C1916.58 505.011 1916.45 505.011 1916.39 504.949L1883.19 494.67L1817.36 494.467C1817.23 494.468 1817.17 494.468 1817.05 494.406L1787.87 484.794L1724.02 484.584C1723.89 484.584 1723.83 484.584 1723.71 484.523L1698.12 475.455L1636.12 475.238C1636 475.239 1635.88 475.239 1635.81 475.177L1613.45 466.655L1553.18 466.432C1553.06 466.433 1552.93 466.433 1552.81 466.372L1533.35 458.334L1474.7 458.168C1474.57 458.168 1474.45 458.169 1474.33 458.107L1457.53 450.555L1400.48 450.383C1400.36 450.384 1400.17 450.322 1400.05 450.261L1385.67 443.072L1330.11 442.895C1329.92 442.895 1329.8 442.834 1329.67 442.772L1317.46 436.009L1263.32 435.827C1262.83 435.829 1262.39 435.397 1262.39 434.902C1262.39 434.407 1262.88 433.972 1263.31 433.971L1317.7 434.152C1317.89 434.151 1318.01 434.213 1318.14 434.274L1330.35 441.038L1385.91 441.215C1386.04 441.215 1386.22 441.276 1386.35 441.337L1400.73 448.526L1457.77 448.698C1457.9 448.698 1458.02 448.697 1458.14 448.759L1474.94 456.311L1533.53 456.477C1533.66 456.477 1533.78 456.477 1533.91 456.538L1553.36 464.576L1613.63 464.798C1613.75 464.798 1613.87 464.797 1613.94 464.859L1636.3 473.381L1698.3 473.598C1698.42 473.598 1698.49 473.598 1698.61 473.659L1724.2 482.727L1788.05 482.937C1788.17 482.937 1788.24 482.937 1788.36 482.998L1817.54 492.61L1883.31 492.814C1883.37 492.814 1883.49 492.813 1883.56 492.875L1916.76 503.154L1984.63 503.35C1984.69 503.35 1984.82 503.349 1984.88 503.411L2022.54 514.355L2054.71 514.428C2055.21 514.426 2055.64 514.858 2055.64 515.353C2055.65 515.91 2055.28 516.282 2054.72 516.284Z" fill="#EBEFF6"/>
<path d="M2054.81 506.013C2054.74 506.013 2054.62 506.014 2054.56 505.952L2052.51 505.402L1984.64 505.206C1984.58 505.206 1984.45 505.207 1984.39 505.145L1949.09 494.874L1883.31 494.67C1883.25 494.67 1883.13 494.671 1883.07 494.609L1851.91 485.004L1788.06 484.793C1787.93 484.794 1787.87 484.794 1787.75 484.733L1760.24 475.671L1698.25 475.455C1698.12 475.455 1698.06 475.455 1697.94 475.394L1673.84 466.877L1613.57 466.655C1613.45 466.655 1613.32 466.656 1613.26 466.594L1592.14 458.562L1533.54 458.396C1533.42 458.396 1533.29 458.396 1533.17 458.335L1514.77 450.727L1457.72 450.555C1457.59 450.555 1457.47 450.556 1457.35 450.494L1441.42 443.311L1385.86 443.133C1385.73 443.134 1385.55 443.072 1385.42 443.011L1371.79 436.191L1317.65 436.008C1317.15 436.01 1316.72 435.578 1316.72 435.084C1316.71 434.589 1317.15 434.154 1317.64 434.152L1372.03 434.334C1372.15 434.333 1372.34 434.394 1372.46 434.456L1386.1 441.276L1441.66 441.453C1441.78 441.453 1441.91 441.453 1442.03 441.514L1457.96 448.698L1515.01 448.87C1515.13 448.869 1515.25 448.869 1515.38 448.93L1533.78 456.538L1592.38 456.705C1592.5 456.705 1592.62 456.704 1592.69 456.766L1613.81 464.798L1674.08 465.02C1674.2 465.02 1674.26 465.02 1674.39 465.081L1698.49 473.598L1760.48 473.814C1760.61 473.814 1760.67 473.814 1760.79 473.875L1788.3 482.936L1852.15 483.147C1852.21 483.146 1852.34 483.146 1852.4 483.208L1883.56 492.813L1949.33 493.016C1949.39 493.016 1949.51 493.016 1949.58 493.077L1984.88 503.349L2052.69 503.545C2052.76 503.545 2052.88 503.545 2052.94 503.606L2055.05 504.218C2055.54 504.34 2055.85 504.834 2055.67 505.329C2055.55 505.763 2055.18 506.012 2054.81 506.013Z" fill="#EBEFF6"/>
<path d="M2054.8 505.456L2052.64 505.464C2052.58 505.464 2052.45 505.464 2052.39 505.403L2014.98 495.138L1949.21 494.935C1949.15 494.935 1949.03 494.936 1948.96 494.874L1915.77 485.214L1851.97 485.003C1851.91 485.004 1851.79 485.004 1851.73 484.942L1822.37 475.888L1760.37 475.671C1760.24 475.671 1760.18 475.671 1760.06 475.61L1734.17 467.1L1673.96 466.877C1673.84 466.877 1673.78 466.878 1673.65 466.816L1650.85 458.728L1592.26 458.562C1592.14 458.562 1592.01 458.563 1591.95 458.501L1572 450.898L1514.95 450.726C1514.83 450.727 1514.7 450.727 1514.58 450.666L1497.17 443.487L1441.61 443.31C1441.48 443.31 1441.36 443.311 1441.23 443.249L1426.17 436.434L1372.03 436.252C1371.54 436.253 1371.11 435.822 1371.1 435.327C1371.1 434.832 1371.47 434.459 1372.03 434.395L1426.35 434.577C1426.48 434.577 1426.6 434.576 1426.73 434.638L1441.78 441.453L1497.35 441.63C1497.47 441.63 1497.6 441.629 1497.72 441.691L1515.19 448.931L1572.18 449.103C1572.3 449.103 1572.43 449.102 1572.49 449.164L1592.44 456.767L1651.03 456.934C1651.16 456.933 1651.22 456.933 1651.34 456.994L1674.14 465.082L1734.34 465.305C1734.47 465.305 1734.53 465.304 1734.65 465.366L1760.55 473.876L1822.54 474.093C1822.61 474.092 1822.73 474.092 1822.79 474.154L1852.15 483.208L1915.94 483.419C1916.01 483.419 1916.13 483.418 1916.19 483.48L1949.39 493.14L2015.16 493.344C2015.22 493.343 2015.35 493.343 2015.41 493.405L2052.82 503.669L2054.86 503.662C2055.35 503.66 2055.79 504.091 2055.79 504.586C2055.73 505.02 2055.3 505.454 2054.8 505.456Z" fill="#EBEFF6"/>
<path d="M2054.83 495.247L2015.17 495.138C2015.11 495.138 2014.98 495.139 2014.92 495.077L1979.81 485.423L1916.01 485.213C1915.95 485.213 1915.83 485.214 1915.77 485.152L1884.55 476.104L1822.61 475.887C1822.55 475.887 1822.43 475.887 1822.37 475.826L1794.68 467.26L1734.47 467.037C1734.35 467.037 1734.29 467.038 1734.16 466.976L1709.7 458.894L1651.16 458.727C1651.04 458.728 1650.98 458.728 1650.85 458.667L1629.3 451.07L1572.25 450.897C1572.12 450.898 1572 450.898 1571.94 450.837L1553.04 443.602L1497.48 443.424C1497.35 443.425 1497.23 443.425 1497.11 443.364L1480.62 436.553L1426.48 436.371C1425.99 436.373 1425.55 435.941 1425.55 435.446C1425.55 434.951 1425.98 434.455 1426.48 434.515L1480.8 434.696C1480.93 434.696 1481.05 434.696 1481.17 434.757L1497.66 441.567L1553.16 441.745C1553.28 441.744 1553.41 441.744 1553.47 441.806L1572.36 449.041L1629.41 449.213C1629.54 449.212 1629.6 449.212 1629.72 449.274L1651.28 456.871L1709.81 457.038C1709.94 457.037 1710 457.037 1710.12 457.099L1734.59 465.18L1794.8 465.403C1794.86 465.403 1794.98 465.403 1795.04 465.464L1822.73 474.03L1884.67 474.247C1884.73 474.247 1884.85 474.246 1884.91 474.308L1916.13 483.356L1979.92 483.567C1979.98 483.567 1980.11 483.566 1980.17 483.628L2015.29 493.281L2054.82 493.391C2055.32 493.389 2055.75 493.821 2055.76 494.316C2055.76 494.811 2055.33 495.245 2054.83 495.247Z" fill="#EBEFF6"/>
<path d="M2054.87 488.503C2054.81 488.503 2054.68 488.503 2054.62 488.503L2043.66 485.634L1979.93 485.423C1979.87 485.423 1979.74 485.424 1979.68 485.362L1946.61 476.258L1884.67 476.041C1884.61 476.042 1884.49 476.042 1884.43 475.98L1855.01 467.421L1794.8 467.198C1794.74 467.198 1794.62 467.198 1794.55 467.137L1768.42 459.061L1709.88 458.894C1709.76 458.894 1709.7 458.894 1709.57 458.833L1686.47 451.179L1629.48 451.007C1629.36 451.007 1629.29 451.008 1629.17 450.946L1608.73 443.716L1553.23 443.539C1553.1 443.539 1552.98 443.54 1552.92 443.478L1535.01 436.673L1480.87 436.49C1480.38 436.492 1479.94 436.061 1479.94 435.566C1479.94 435.071 1480.37 434.636 1480.86 434.634L1535.13 434.816C1535.25 434.816 1535.38 434.815 1535.44 434.877L1553.34 441.682L1608.84 441.86C1608.97 441.859 1609.03 441.859 1609.15 441.921L1629.6 449.15L1686.58 449.323C1686.71 449.322 1686.77 449.322 1686.89 449.384L1710 457.037L1768.53 457.204C1768.59 457.204 1768.72 457.203 1768.78 457.265L1794.92 465.341L1855.12 465.564C1855.18 465.564 1855.31 465.563 1855.37 465.625L1884.79 474.185L1946.73 474.402C1946.79 474.401 1946.91 474.401 1946.97 474.463L1980.05 483.566L2043.78 483.777C2043.84 483.777 2043.96 483.776 2044.02 483.776L2055.11 486.645C2055.61 486.767 2055.92 487.261 2055.79 487.757C2055.67 488.252 2055.24 488.501 2054.87 488.503Z" fill="#EBEFF6"/>
<path d="M2054.86 485.656L2043.72 485.633C2043.66 485.634 2043.54 485.634 2043.47 485.634L2008.55 476.537L1946.67 476.32C1946.61 476.32 1946.49 476.32 1946.42 476.259L1915.21 467.705L1855.07 467.482C1855.01 467.483 1854.88 467.483 1854.82 467.421L1827.01 459.351L1768.48 459.184C1768.42 459.184 1768.29 459.185 1768.23 459.123L1743.52 451.475L1686.53 451.303C1686.41 451.303 1686.34 451.304 1686.22 451.242L1664.29 444.018L1608.79 443.84C1608.67 443.84 1608.6 443.841 1608.48 443.779L1589.09 436.917L1535.01 436.735C1534.52 436.736 1534.08 436.305 1534.08 435.81C1534.08 435.315 1534.57 434.818 1535.01 434.878L1589.27 435.06C1589.39 435.06 1589.45 435.06 1589.58 435.121L1608.97 441.983L1664.47 442.161C1664.59 442.16 1664.66 442.16 1664.78 442.221L1686.71 449.446L1743.69 449.618C1743.76 449.618 1743.88 449.618 1743.94 449.679L1768.66 457.327L1827.19 457.494C1827.25 457.494 1827.38 457.494 1827.44 457.555L1855.25 465.625L1915.39 465.849C1915.45 465.848 1915.57 465.848 1915.64 465.91L1946.85 474.463L2008.72 474.68C2008.79 474.68 2008.91 474.68 2008.97 474.679L2043.9 483.777L2054.91 483.8C2055.41 483.798 2055.84 484.23 2055.85 484.725C2055.79 485.282 2055.35 485.655 2054.86 485.656Z" fill="#EBEFF6"/>
<path d="M2054.89 476.685L2008.67 476.537C2008.61 476.537 2008.48 476.537 2008.42 476.537L1975.48 467.99L1915.33 467.767C1915.27 467.767 1915.15 467.768 1915.09 467.706L1885.61 459.642L1827.13 459.474C1827.07 459.475 1826.95 459.475 1826.89 459.413L1800.63 451.771L1743.64 451.598C1743.58 451.599 1743.45 451.599 1743.39 451.537L1719.98 444.318L1664.48 444.141C1664.35 444.141 1664.29 444.141 1664.17 444.08L1643.35 437.223L1589.28 437.04C1588.78 437.042 1588.35 436.61 1588.34 436.115C1588.34 435.62 1588.77 435.186 1589.27 435.184L1643.53 435.366C1643.66 435.365 1643.72 435.365 1643.84 435.427L1664.66 442.284L1720.16 442.461C1720.22 442.461 1720.34 442.461 1720.41 442.522L1743.82 449.742L1800.8 449.914C1800.87 449.914 1800.99 449.913 1801.05 449.975L1827.31 457.618L1885.78 457.785C1885.85 457.784 1885.97 457.784 1886.03 457.846L1915.51 465.91L1975.65 466.133C1975.72 466.133 1975.84 466.133 1975.9 466.132L2008.85 474.68L2054.94 474.828C2055.44 474.826 2055.87 475.258 2055.88 475.753C2055.82 476.248 2055.45 476.683 2054.89 476.685Z" fill="#EBEFF6"/>
<path d="M2054.94 472.848C2054.88 472.848 2054.81 472.849 2054.69 472.849L2035.74 468.151L1975.6 467.928C1975.54 467.928 1975.41 467.928 1975.35 467.929L1944.26 459.808L1885.79 459.641C1885.73 459.641 1885.61 459.642 1885.54 459.58L1857.67 451.943L1800.75 451.77C1800.69 451.771 1800.56 451.771 1800.5 451.709L1775.6 444.495L1720.16 444.317C1720.1 444.318 1719.98 444.318 1719.92 444.256L1697.68 437.404L1643.6 437.222C1643.11 437.223 1642.67 436.792 1642.67 436.297C1642.67 435.802 1642.98 435.368 1643.59 435.366L1697.8 435.548C1697.86 435.547 1697.98 435.547 1698.04 435.609L1720.28 442.461L1775.72 442.639C1775.78 442.638 1775.91 442.638 1775.97 442.7L1800.87 449.914L1857.79 450.086C1857.85 450.086 1857.98 450.086 1858.04 450.147L1885.91 457.784L1944.38 457.951C1944.44 457.951 1944.57 457.951 1944.63 457.951L1975.72 466.071L2035.86 466.294C2035.92 466.294 2035.98 466.294 2036.11 466.294L2055.18 470.991C2055.67 471.113 2055.99 471.607 2055.86 472.103C2055.74 472.536 2055.37 472.847 2054.94 472.848Z" fill="#EBEFF6"/>
<path d="M2054.92 468.208L2035.86 468.151C2035.8 468.151 2035.74 468.151 2035.62 468.151L2002.86 460.037L1944.39 459.869C1944.32 459.87 1944.2 459.87 1944.14 459.87L1914.72 452.239L1857.8 452.066C1857.74 452.066 1857.61 452.067 1857.55 452.005L1831.17 444.734L1775.73 444.557C1775.67 444.557 1775.54 444.557 1775.48 444.496L1751.82 437.648L1697.74 437.466C1697.25 437.468 1696.81 437.036 1696.81 436.541C1696.81 436.046 1697.24 435.611 1697.74 435.61L1751.94 435.792C1752 435.792 1752.12 435.791 1752.19 435.853L1775.84 442.7L1831.28 442.878C1831.35 442.878 1831.47 442.877 1831.53 442.939L1857.92 450.21L1914.84 450.382C1914.9 450.382 1915.03 450.382 1915.09 450.381L1944.5 458.013L2002.97 458.18C2003.04 458.18 2003.1 458.18 2003.22 458.179L2035.98 466.294L2054.98 466.351C2055.47 466.35 2055.91 466.781 2055.91 467.276C2055.85 467.771 2055.48 468.206 2054.92 468.208Z" fill="#EBEFF6"/>
<path d="M2055.02 460.164C2054.96 460.164 2054.96 460.164 2055.02 460.164L2002.98 459.974C2002.92 459.974 2002.86 459.975 2002.73 459.975L1971.71 452.287L1914.85 452.115C1914.78 452.115 1914.66 452.115 1914.6 452.115L1886.67 444.85L1831.23 444.672C1831.17 444.673 1831.04 444.673 1830.98 444.611L1805.9 437.707L1751.88 437.524C1751.39 437.526 1750.95 437.095 1750.95 436.6C1750.95 436.105 1751.38 435.67 1751.88 435.668L1806.02 435.85C1806.08 435.85 1806.2 435.85 1806.26 435.911L1831.35 442.816L1886.79 442.993C1886.85 442.993 1886.97 442.993 1887.03 442.993L1914.96 450.258L1971.83 450.431C1971.89 450.431 1971.95 450.43 1972.07 450.43L2003.1 458.118L2055.01 458.308C2055.51 458.306 2055.94 458.738 2055.94 459.233C2055.88 459.728 2055.51 460.162 2055.02 460.164Z" fill="#EBEFF6"/>
<path d="M2055.01 458.617C2054.95 458.617 2054.89 458.617 2054.76 458.618L2028.69 452.46L1971.83 452.287C1971.77 452.287 1971.71 452.287 1971.58 452.288L1942.17 445.027L1886.79 444.85C1886.73 444.85 1886.61 444.85 1886.54 444.85L1860.1 437.951L1806.08 437.768C1805.59 437.77 1805.15 437.338 1805.15 436.843C1805.15 436.348 1805.58 435.914 1806.08 435.912L1860.22 436.094C1860.28 436.094 1860.4 436.094 1860.46 436.094L1886.91 442.993L1942.29 443.171C1942.35 443.171 1942.41 443.17 1942.53 443.17L1971.95 450.43L2028.81 450.603C2028.87 450.603 2028.94 450.603 2029 450.602L2055.19 456.76C2055.69 456.882 2056 457.376 2055.88 457.872C2055.82 458.367 2055.38 458.616 2055.01 458.617Z" fill="#EBEFF6"/>
<path d="M2054.99 452.554L2028.82 452.459C2028.76 452.459 2028.69 452.46 2028.63 452.46L1997.79 445.205L1942.42 445.027C1942.35 445.027 1942.29 445.027 1942.17 445.027L1914.3 438.133L1860.29 437.95C1859.79 437.952 1859.36 437.521 1859.35 437.026C1859.35 436.531 1859.72 436.096 1860.28 436.094L1914.36 436.277C1914.42 436.276 1914.48 436.276 1914.6 436.276L1942.47 443.17L1997.85 443.348C1997.91 443.348 1997.97 443.348 1998.03 443.348L2028.87 450.603L2054.98 450.697C2055.48 450.696 2055.91 451.127 2055.92 451.622C2055.92 452.179 2055.55 452.552 2054.99 452.554Z" fill="#EBEFF6"/>
<path d="M2055.03 445.747C2054.97 445.747 2054.91 445.748 2054.84 445.748L2053.23 445.382L1997.86 445.204C1997.79 445.205 1997.73 445.205 1997.67 445.205L1968.38 438.316L1914.43 438.133C1913.93 438.134 1913.5 437.703 1913.49 437.208C1913.49 436.713 1913.92 436.278 1914.42 436.276L1968.5 436.459C1968.56 436.459 1968.62 436.458 1968.68 436.458L1997.97 443.348L2053.35 443.526C2053.41 443.525 2053.47 443.525 2053.54 443.525L2055.27 443.89C2055.77 444.012 2056.08 444.506 2055.95 445.002C2055.83 445.497 2055.46 445.746 2055.03 445.747Z" fill="#EBEFF6"/>
<path d="M2055.03 445.376L2053.3 445.382C2053.23 445.382 2053.17 445.383 2053.11 445.383L2022.4 438.498L1968.44 438.315C1967.95 438.317 1967.51 437.885 1967.51 437.39C1967.51 436.895 1967.94 436.461 1968.44 436.459L2022.51 436.642C2022.58 436.641 2022.64 436.641 2022.7 436.641L2053.41 443.525L2055.02 443.52C2055.52 443.518 2055.95 443.95 2055.95 444.445C2055.95 444.94 2055.58 445.374 2055.03 445.376Z" fill="#EBEFF6"/>
<path d="M2052.35 1042.28C2052.16 1042.28 2051.98 1042.22 2051.79 1042.1L2021.52 1020.36L-278.825 1018.43L-321.221 1050.32C-321.653 1050.63 -322.21 1050.57 -322.521 1050.14C-322.832 1049.71 -322.772 1049.15 -322.34 1048.84L-279.697 1016.76C-279.512 1016.64 -279.389 1016.64 -279.141 1016.57L2021.88 1018.5C2022.07 1018.5 2022.26 1018.56 2022.44 1018.69L2052.96 1040.61C2053.39 1040.92 2053.46 1041.47 2053.15 1041.91C2052.97 1042.15 2052.66 1042.28 2052.35 1042.28Z" fill="#EBEFF6"/>
<path d="M2053.03 900.526L2005.32 900.445C2005.14 900.445 2004.95 900.384 2004.83 900.323L1310.76 465.794L398.855 462.851L-271.081 897.253C-271.204 897.378 -271.39 897.378 -271.576 897.379L-321.075 897.304C-321.57 897.306 -322.004 896.874 -322.006 896.379C-322.008 895.884 -321.638 895.388 -321.081 895.448L-271.892 895.524L398.045 461.122C398.168 460.998 398.416 460.997 398.539 460.996L1311 463.937C1311.19 463.936 1311.37 463.997 1311.5 464.059L2005.56 898.649L2053.02 898.731C2053.52 898.729 2053.95 899.161 2053.95 899.656C2053.95 900.151 2053.52 900.524 2053.03 900.526Z" fill="#EBEFF6"/>
<path d="M-270.173 430.723L-318.992 430.584C-319.487 430.586 -319.921 430.154 -319.923 429.659C-319.925 429.164 -319.493 428.73 -318.998 428.728L-270.179 428.867C-269.684 428.865 -269.25 429.297 -269.248 429.792C-269.246 430.349 -269.616 430.721 -270.173 430.723Z" fill="#EBEFF6"/>
<path d="M-272.536 444.9L-319.066 444.753C-319.561 444.755 -319.996 444.324 -319.997 443.829C-319.999 443.334 -319.567 442.899 -319.072 442.897L-272.667 443.045L-215.297 429.108C-215.235 429.108 -215.173 429.108 -215.049 429.108L-104.913 429.466C-104.418 429.464 -103.983 429.895 -103.981 430.39C-103.98 430.885 -104.411 431.258 -104.906 431.322L-214.981 430.964L-272.351 444.9C-272.351 444.9 -272.475 444.9 -272.536 444.9Z" fill="#EBEFF6"/>
<path d="M2051.2 1299.56L1943.73 1299.62C1943.48 1299.62 1943.23 1299.5 1943.05 1299.31L1106.31 442.191L602.775 440.484L-74.7949 1187.44C-74.9799 1187.62 -75.2267 1187.81 -75.4744 1187.75L-289.31 1187.75L-321.877 1216.88C-322.247 1217.2 -322.866 1217.2 -323.177 1216.83C-323.549 1216.46 -323.49 1215.84 -323.12 1215.53L-290.243 1186.15C-290.058 1186.02 -289.873 1185.9 -289.626 1185.9L-75.8522 1185.89L601.718 439.002C601.903 438.816 602.088 438.692 602.397 438.691L1106.73 440.395C1106.98 440.394 1107.23 440.517 1107.42 440.702L1944.16 1297.83L2051.26 1297.76C2051.75 1297.76 2052.19 1298.19 2052.19 1298.69C2052.19 1299.18 2051.76 1299.55 2051.2 1299.56Z" fill="#EBEFF6"/>
<path d="M-275.142 460.625L-319.135 460.47C-319.63 460.471 -320.064 460.04 -320.066 459.545C-320.068 459.05 -319.636 458.615 -319.141 458.613L-275.272 458.77L-244.178 450.803C-244.116 450.803 -243.992 450.802 -243.93 450.802L-184.345 451.027L-156.59 443.506C-156.528 443.505 -156.466 443.443 -156.343 443.443L-98.4284 443.612L-73.7039 436.472C-73.642 436.472 -73.5183 436.471 -73.4566 436.409L39.2784 436.758L59.7968 430.004C60.2912 429.817 60.7873 430.125 60.9746 430.619C61.162 431.113 60.8543 431.609 60.36 431.797L39.7798 438.613C39.6561 438.613 39.5944 438.675 39.4707 438.676L-73.3262 438.327L-98.0507 445.467C-98.1126 445.467 -98.2361 445.529 -98.298 445.53L-156.212 445.361L-183.967 452.882C-184.029 452.882 -184.091 452.883 -184.215 452.945L-243.8 452.72L-274.894 460.686C-275.018 460.625 -275.08 460.625 -275.142 460.625Z" fill="#EBEFF6"/>
<path d="M2052.46 1020.38L2021.83 1020.36C2021.64 1020.36 2021.46 1020.3 2021.27 1020.18L1238.89 457.506L470.663 454.99L-278.579 1018.24C-278.764 1018.37 -278.949 1018.43 -279.135 1018.43L-321.642 1018.39C-322.137 1018.39 -322.572 1017.96 -322.573 1017.47C-322.575 1016.97 -322.144 1016.54 -321.649 1016.54L-279.451 1016.58L469.791 453.323C469.976 453.198 470.162 453.136 470.347 453.135L1239.2 455.649C1239.38 455.648 1239.57 455.709 1239.76 455.832L2022.19 1018.5L2052.51 1018.52C2053.01 1018.52 2053.44 1018.95 2053.44 1019.45C2053.38 1019.94 2053.01 1020.37 2052.46 1020.38Z" fill="#EBEFF6"/>
<path d="M-278.112 478.332L-319.196 478.228C-319.691 478.229 -320.126 477.798 -320.128 477.303C-320.13 476.808 -319.698 476.373 -319.203 476.371L-278.242 476.476L-245.233 467.513C-245.171 467.512 -245.109 467.45 -244.986 467.45L-181.936 467.663L-152.637 459.208C-152.575 459.208 -152.452 459.145 -152.39 459.145L-91.1961 459.365L-65.2988 451.416C-65.2369 451.416 -65.1132 451.416 -65.0515 451.353L-5.59018 451.579L17.2769 444.074C17.4006 444.074 17.4623 444.012 17.5861 444.011L75.3766 444.181L114.742 430.246C114.865 430.183 114.927 430.183 115.051 430.183L224.878 430.542C225.373 430.54 225.807 430.972 225.809 431.467C225.811 431.962 225.317 432.335 224.884 432.398L115.181 432.038L75.816 445.974C75.6925 446.036 75.6306 446.036 75.5069 446.037L17.7163 445.867L-5.15079 453.372C-5.27454 453.372 -5.3364 453.372 -5.45993 453.435L-64.9213 453.209L-90.8186 461.158C-90.8805 461.158 -91.0042 461.158 -91.0659 461.22L-152.26 461.001L-181.558 469.456C-181.62 469.456 -181.744 469.519 -181.806 469.519L-244.856 469.306L-277.865 478.269C-277.926 478.331 -278.05 478.331 -278.112 478.332Z" fill="#EBEFF6"/>
<path d="M-281.446 498.267L-319.313 498.151C-319.808 498.153 -320.242 497.721 -320.244 497.226C-320.246 496.731 -319.752 496.358 -319.319 496.295L-281.638 496.411L-246.467 486.265C-246.405 486.265 -246.282 486.202 -246.22 486.202L-179.21 486.401L-148.244 476.888C-148.182 476.888 -148.059 476.888 -147.997 476.826L-83.0909 477.032L-55.8977 468.089C-55.7739 468.089 -55.7123 468.027 -55.5885 468.026L7.33771 468.24L31.1296 459.804C31.2532 459.741 31.3769 459.741 31.4388 459.741L92.5088 459.961L113.271 452.03C113.394 451.968 113.456 451.968 113.58 451.967L172.917 452.131L190.896 444.644C191.02 444.582 191.144 444.581 191.267 444.581L248.934 444.751L264.44 437.643C264.563 437.581 264.687 437.58 264.811 437.58L377.174 437.93L388.969 431.207C389.401 430.958 389.958 431.079 390.208 431.573C390.457 432.006 390.335 432.563 389.841 432.812L377.861 439.66C377.737 439.722 377.552 439.785 377.428 439.785L265.065 439.435L249.683 446.542C249.559 446.605 249.436 446.605 249.312 446.606L191.645 446.436L173.666 453.923C173.542 453.986 173.419 453.986 173.295 453.986L113.958 453.822L93.1957 461.753C93.0721 461.815 92.9482 461.754 92.8865 461.816L31.8165 461.596L8.02457 470.032C7.90103 470.094 7.83914 470.094 7.71539 470.095L-55.2108 469.881L-82.404 478.824C-82.5278 478.824 -82.5896 478.825 -82.7132 478.887L-147.619 478.68L-178.708 488.256C-178.77 488.256 -178.894 488.318 -178.956 488.318L-245.965 488.119L-281.136 498.265C-281.26 498.266 -281.384 498.266 -281.446 498.267Z" fill="#EBEFF6"/>
<path d="M-319.444 531.44C-319.815 531.441 -320.187 531.195 -320.313 530.762C-320.438 530.268 -320.192 529.772 -319.698 529.584L-285.519 519.07C-285.457 519.07 -285.333 519.008 -285.271 519.008L-211.331 519.244L-176.166 507.675C-176.042 507.675 -175.98 507.613 -175.857 507.612L-104.454 507.858L-73.9257 497.047C-73.8021 496.985 -73.6784 496.984 -73.6165 496.984L-4.56485 497.176L21.8817 487.06C22.0053 486.998 22.129 486.998 22.1909 486.997L89.0151 487.197L111.751 477.713C111.875 477.651 111.999 477.65 112.123 477.65L176.843 477.857L196.302 468.941C196.426 468.879 196.549 468.817 196.673 468.878L259.414 469.092L275.967 460.682C276.09 460.619 276.214 460.557 276.399 460.556L337.284 460.777L351.178 452.87C351.301 452.808 351.487 452.808 351.61 452.745L410.7 452.91L422.183 445.445C422.306 445.321 422.492 445.32 422.677 445.32L480.097 445.491L489.415 438.466C489.6 438.342 489.786 438.279 489.971 438.279L601.902 438.631L607.819 432.113C608.189 431.741 608.746 431.677 609.118 432.047C609.491 432.417 609.554 432.973 609.185 433.346L602.959 440.174C602.774 440.36 602.465 440.423 602.28 440.485L490.225 440.134L480.907 447.158C480.722 447.283 480.536 447.345 480.351 447.346L422.869 447.175L411.387 454.64C411.264 454.764 411.078 454.765 410.892 454.766L351.741 454.601L337.847 462.507C337.723 462.57 337.6 462.632 337.414 462.633L276.529 462.412L259.977 470.823C259.853 470.885 259.73 470.947 259.544 470.948L196.803 470.734L177.344 479.65C177.221 479.712 177.097 479.713 176.973 479.713L112.253 479.506L89.5164 488.99C89.3928 489.052 89.331 489.052 89.1454 489.053L22.3211 488.853L-4.12549 498.969C-4.24902 499.031 -4.37274 499.032 -4.4346 499.032L-73.4863 498.84L-104.014 509.651C-104.138 509.713 -104.2 509.713 -104.323 509.714L-175.726 509.468L-210.892 521.037C-211.016 521.038 -211.14 521.038 -211.201 521.1L-285.141 520.863L-319.135 531.439C-319.258 531.439 -319.32 531.439 -319.444 531.44Z" fill="#EBEFF6"/>
<path d="M-285.264 520.926L-319.419 520.797C-319.914 520.799 -320.349 520.367 -320.35 519.872C-320.352 519.378 -319.921 518.943 -319.426 518.941L-285.457 519.07L-247.816 507.492C-247.754 507.492 -247.63 507.491 -247.569 507.429L-176.104 507.675L-143.225 496.856C-143.101 496.856 -143.039 496.793 -142.916 496.793L-73.8639 496.985L-45.2517 486.862C-45.1282 486.799 -45.0663 486.799 -44.9426 486.799L21.8817 486.999L46.7217 477.507C46.8453 477.445 46.9071 477.445 47.0309 477.444L111.813 477.651L133.252 468.728C133.376 468.666 133.5 468.666 133.623 468.665L196.426 468.879L214.773 460.462C214.896 460.4 215.02 460.337 215.144 460.399L276.09 460.619L291.717 452.707C291.84 452.644 292.026 452.582 292.149 452.582L351.301 452.746L364.392 445.276C364.516 445.213 364.701 445.151 364.825 445.151L422.306 445.321L443.728 431.448C443.851 431.324 444.037 431.324 444.222 431.323L553.74 431.683C554.235 431.681 554.67 432.113 554.671 432.608C554.673 433.103 554.241 433.476 553.747 433.539L444.476 433.178L423.055 447.051C422.931 447.175 422.746 447.238 422.56 447.176L365.017 447.006L351.926 454.477C351.802 454.539 351.617 454.601 351.493 454.602L292.28 454.437L276.653 462.35C276.53 462.412 276.406 462.474 276.22 462.475L215.274 462.255L196.927 470.672C196.804 470.734 196.68 470.734 196.556 470.735L133.754 470.521L112.315 479.444C112.191 479.506 112.067 479.506 111.944 479.507L47.1611 479.3L22.321 488.791C22.1975 488.854 22.0737 488.854 22.0119 488.854L-44.8742 488.655L-73.4864 498.778C-73.6099 498.84 -73.6718 498.841 -73.7955 498.841L-142.909 498.649L-175.788 509.468C-175.912 509.469 -175.973 509.531 -176.097 509.531L-247.562 509.286L-285.203 520.864C-285.079 520.925 -285.141 520.925 -285.264 520.926Z" fill="#EBEFF6"/>
<path d="M2051.74 1187.99L2045.06 1188.02C2044.81 1188.02 2044.63 1187.96 2044.44 1187.77L1170.87 449.638L538.575 447.576L-289.063 1187.5C-289.248 1187.63 -289.496 1187.69 -289.681 1187.75L-322.412 1187.74C-322.907 1187.75 -323.342 1187.31 -323.343 1186.82C-323.345 1186.32 -322.914 1185.89 -322.419 1185.89L-290.059 1185.9L537.517 445.971C537.702 445.846 537.888 445.722 538.135 445.721L1171.17 447.781C1171.42 447.78 1171.6 447.841 1171.79 448.026L2045.36 1186.1L2051.74 1186.08C2052.23 1186.08 2052.67 1186.51 2052.67 1187C2052.67 1187.5 2052.24 1187.99 2051.74 1187.99Z" fill="#EBEFF6"/>
<path d="M2055.07 438.57L2022.52 438.436C2022.02 438.438 2021.59 438.006 2021.59 437.511C2021.59 437.016 2022.02 436.52 2022.51 436.58L2055.06 436.714C2055.55 436.712 2055.99 437.143 2055.99 437.638C2055.99 438.133 2055.62 438.568 2055.07 438.57Z" fill="#EBEFF6"/>
<path d="M2054.53 568.073L2040.42 568.061C2040.3 568.061 2040.24 568.061 2040.11 568L1955.37 540.081L-248.838 533.606L-319.232 556.807C-319.726 556.995 -320.222 556.687 -320.409 556.193C-320.597 555.698 -320.289 555.202 -319.795 555.015L-249.278 531.814C-249.154 531.813 -249.092 531.751 -248.969 531.751L1955.49 538.163C1955.61 538.162 1955.67 538.162 1955.8 538.224L2040.54 566.142L2054.52 566.155C2055.02 566.153 2055.45 566.585 2055.45 567.08C2055.45 567.699 2055.02 568.071 2054.53 568.073Z" fill="#EBEFF6"/>
<path d="M2054.54 553.719L-319.514 546.908C-320.009 546.91 -320.443 546.479 -320.445 545.984C-320.447 545.489 -320.015 545.116 -319.52 545.052L2054.53 551.862C2055.03 551.861 2055.46 552.292 2055.46 552.787C2055.47 553.282 2055.1 553.717 2054.54 553.719Z" fill="#EBEFF6"/>
<path d="M2054.33 600.434L2051.55 600.444C2051.42 600.444 2051.36 600.444 2051.24 600.383L1844.45 527.289L-136.952 521.398L-319.377 586.012C-319.871 586.199 -320.367 585.954 -320.555 585.459C-320.742 584.965 -320.496 584.469 -320.002 584.282L-137.453 519.605C-137.329 519.543 -137.268 519.543 -137.144 519.542L1844.63 525.432C1844.75 525.432 1844.81 525.432 1844.94 525.493L2051.73 598.587L2054.33 598.578C2054.82 598.576 2055.25 599.008 2055.26 599.502C2055.26 600.059 2054.89 600.432 2054.33 600.434Z" fill="#EBEFF6"/>
<path d="M2054.46 583.604L-319.655 577.165C-320.15 577.167 -320.585 576.735 -320.587 576.24C-320.588 575.745 -320.157 575.311 -319.662 575.309L2054.39 581.81C2054.89 581.808 2055.32 582.24 2055.32 582.734C2055.39 583.229 2054.95 583.602 2054.46 583.604Z" fill="#EBEFF6"/>
<path d="M2054.2 634.65C2054.08 634.651 2053.96 634.651 2053.89 634.59L2012.01 618.649L-300.474 612.675L-319.506 619.981C-320 620.168 -320.496 619.923 -320.684 619.428C-320.871 618.934 -320.625 618.438 -320.131 618.251L-300.914 610.883C-300.79 610.82 -300.666 610.82 -300.605 610.82L2012.13 616.792C2012.25 616.792 2012.38 616.791 2012.44 616.853L2054.51 632.855C2055 633.039 2055.25 633.595 2055.07 634.029C2054.95 634.462 2054.57 634.649 2054.2 634.65Z" fill="#EBEFF6"/>
<path d="M-319.013 442.031C-319.447 442.032 -319.819 441.724 -319.944 441.292C-320.07 440.797 -319.762 440.301 -319.267 440.175L-299.855 435.715C-299.793 435.714 -299.731 435.714 -299.669 435.714L-186.625 436.062L-160.228 429.287C-159.734 429.162 -159.238 429.47 -159.112 429.964C-158.987 430.459 -159.294 430.955 -159.789 431.08L-186.309 437.855C-186.371 437.855 -186.433 437.917 -186.557 437.856L-299.601 437.508L-318.952 441.969C-318.89 442.03 -318.952 442.031 -319.013 442.031Z" fill="#EBEFF6"/>
<path d="M-299.601 437.508L-319.029 437.452C-319.524 437.454 -319.959 437.022 -319.961 436.527C-319.963 436.032 -319.531 435.598 -319.036 435.596L-299.731 435.652L-270.365 428.868C-270.303 428.867 -270.241 428.867 -270.179 428.867L-215.049 429.046C-214.554 429.044 -214.12 429.476 -214.118 429.971C-214.116 430.465 -214.548 430.9 -215.043 430.902L-270.049 430.723L-299.415 437.507C-299.477 437.508 -299.539 437.508 -299.601 437.508Z" fill="#EBEFF6"/>
<path d="M2054.27 618.749L2012.14 618.648C2012.01 618.649 2011.89 618.649 2011.83 618.587L1740.95 515.338L-32.6108 509.958L-300.289 612.613C-300.413 612.675 -300.536 612.676 -300.598 612.676L-319.779 612.619C-320.274 612.621 -320.709 612.189 -320.711 611.694C-320.712 611.199 -320.343 610.703 -319.786 610.763L-300.79 610.82L-33.112 508.166C-32.9885 508.103 -32.8647 508.103 -32.8029 508.103L1741.07 513.481C1741.2 513.481 1741.32 513.48 1741.38 513.542L2012.25 616.792L2054.2 616.893C2054.7 616.891 2055.13 617.323 2055.13 617.818C2055.2 618.312 2054.77 618.747 2054.27 618.749Z" fill="#EBEFF6"/>
<path d="M-319.088 456.2C-319.521 456.202 -319.893 455.894 -320.018 455.461C-320.144 454.966 -319.836 454.47 -319.342 454.345L-303.886 450.578C-303.825 450.578 -303.763 450.578 -303.639 450.578L-244.054 450.803L-214.628 443.275C-214.566 443.275 -214.505 443.275 -214.381 443.274L-156.467 443.443L-105.098 429.528C-105.036 429.528 -104.913 429.466 -104.851 429.465L5.22366 429.824C5.71863 429.822 6.15323 430.253 6.15497 430.748C6.15671 431.243 5.7251 431.678 5.2301 431.68L-104.721 431.321L-156.089 445.236C-156.151 445.237 -156.274 445.299 -156.336 445.299L-214.312 445.13L-243.738 452.658C-243.8 452.658 -243.862 452.72 -243.986 452.659L-303.571 452.434L-318.902 456.138C-318.964 456.2 -319.026 456.2 -319.088 456.2Z" fill="#EBEFF6"/>
<path d="M-303.694 452.434L-319.101 452.364C-319.596 452.366 -320.031 451.934 -320.032 451.439C-320.034 450.944 -319.603 450.51 -319.108 450.508L-303.825 450.578L-272.79 443.045C-272.728 443.045 -272.605 443.044 -272.543 443.044L-214.567 443.213L-186.748 436.062C-186.687 436.062 -186.563 436.062 -186.501 436.061L-73.5803 436.41L-50.0919 429.645C-49.5974 429.52 -49.1015 429.766 -48.9142 430.26C-48.7887 430.755 -49.0345 431.25 -49.5288 431.438L-73.1407 438.264C-73.2026 438.265 -73.3263 438.265 -73.388 438.327L-186.371 437.917L-214.189 445.068C-214.251 445.068 -214.313 445.068 -214.436 445.069L-272.413 444.9L-303.447 452.433C-303.509 452.433 -303.571 452.434 -303.694 452.434Z" fill="#EBEFF6"/>
<path d="M2054.03 673.569C2053.91 673.57 2053.78 673.57 2053.66 673.509L2022.06 660.44L-307.504 654.898L-319.676 659.952C-320.17 660.139 -320.666 659.956 -320.915 659.461C-321.102 658.967 -320.918 658.471 -320.424 658.222L-308.068 653.044C-307.944 652.981 -307.82 652.981 -307.697 652.98L2022.24 658.583C2022.36 658.583 2022.48 658.582 2022.61 658.644L2054.4 671.774C2054.89 671.958 2055.08 672.514 2054.89 673.01C2054.71 673.381 2054.4 673.568 2054.03 673.569Z" fill="#EBEFF6"/>
<path d="M2054.11 660.514L2022.3 660.439C2022.18 660.44 2022.06 660.44 2021.93 660.379L1643.96 504.168L64.9269 499.347L-307.319 654.773C-307.443 654.836 -307.566 654.836 -307.69 654.837L-320.003 654.818C-320.498 654.819 -320.933 654.388 -320.934 653.893C-320.936 653.398 -320.505 652.963 -320.01 652.962L-307.882 652.981L64.4257 497.554C64.5492 497.492 64.6729 497.491 64.7967 497.491L1644.14 502.311C1644.26 502.311 1644.39 502.31 1644.51 502.372L2022.48 658.582L2054.1 658.658C2054.6 658.656 2055.03 659.088 2055.03 659.583C2055.03 660.139 2054.6 660.512 2054.11 660.514Z" fill="#EBEFF6"/>
<path d="M-319.157 471.916C-319.59 471.918 -319.962 471.61 -320.087 471.239C-320.213 470.744 -319.905 470.248 -319.41 470.123L-308.469 467.3C-308.407 467.3 -308.283 467.3 -308.221 467.299L-245.109 467.512L-214.016 459.051C-213.955 459.051 -213.831 459.05 -213.769 458.988L-152.513 459.207L-124.884 451.253C-124.822 451.253 -124.698 451.19 -124.636 451.19L-65.1751 451.416L-40.6375 443.905C-40.5756 443.905 -40.452 443.843 -40.3902 443.843L17.4623 444.012L39.155 436.883C39.2788 436.882 39.3405 436.82 39.4642 436.82L152.075 437.169L169.686 430.425C170.18 430.238 170.676 430.484 170.863 430.978C171.051 431.472 170.805 431.968 170.311 432.155L152.515 438.962C152.391 439.024 152.329 439.024 152.206 439.025L39.5325 438.676L17.8398 445.805C17.716 445.805 17.6544 445.867 17.5306 445.868L-40.3218 445.698L-64.8594 453.209C-64.9213 453.209 -65.0449 453.271 -65.1067 453.272L-124.63 453.046L-152.26 461.001C-152.322 461.001 -152.445 461.063 -152.507 461.064L-213.763 460.844L-244.732 469.305C-244.794 469.305 -244.917 469.368 -244.979 469.368L-308.091 469.155L-318.909 471.915C-319.033 471.916 -319.095 471.916 -319.157 471.916Z" fill="#EBEFF6"/>
<path d="M-308.215 469.094L-319.167 469.07C-319.662 469.072 -320.096 468.64 -320.098 468.145C-320.1 467.65 -319.73 467.154 -319.173 467.214L-308.345 467.238L-275.396 458.832C-275.334 458.832 -275.272 458.832 -275.148 458.831L-213.893 459.05L-184.531 451.09C-184.469 451.09 -184.345 451.027 -184.283 451.027L-124.76 451.191L-98.6139 443.675C-98.552 443.674 -98.4285 443.612 -98.3666 443.612L-40.5142 443.781L4.85233 429.825C4.91418 429.825 5.03772 429.762 5.09961 429.762L115.05 430.121C115.545 430.119 115.98 430.551 115.982 431.046C115.983 431.541 115.552 431.975 115.057 431.977L5.22986 431.618L-40.1367 445.574C-40.1986 445.574 -40.3221 445.637 -40.384 445.637L-98.2364 445.468L-124.383 452.984C-124.445 452.984 -124.568 453.046 -124.63 453.046L-184.153 452.883L-213.515 460.843C-213.577 460.844 -213.639 460.906 -213.762 460.906L-275.08 460.687L-308.029 469.155C-308.029 469.093 -308.153 469.094 -308.215 469.094Z" fill="#EBEFF6"/>
<path d="M-319.219 489.489C-319.652 489.49 -320.024 489.244 -320.088 488.811C-320.213 488.316 -319.905 487.82 -319.411 487.695L-313.477 486.065C-313.415 486.065 -313.353 486.003 -313.229 486.003L-246.158 486.202L-213.15 476.682C-213.089 476.682 -213.027 476.619 -212.903 476.619L-147.935 476.825L-118.824 467.876C-118.762 467.876 -118.7 467.813 -118.577 467.813L-55.5885 468.026L-29.9405 459.584C-29.8167 459.583 -29.755 459.521 -29.6313 459.521L31.5006 459.741L53.9949 451.804C54.1185 451.742 54.1804 451.742 54.3041 451.741L113.641 451.905L133.291 444.35C133.414 444.288 133.538 444.287 133.6 444.287L191.329 444.457L224.692 430.542C224.815 430.48 224.939 430.48 225.063 430.479L334.828 430.839C335.323 430.837 335.758 431.268 335.759 431.763C335.761 432.258 335.33 432.693 334.835 432.695L225.131 432.397L191.768 446.311C191.645 446.374 191.521 446.374 191.397 446.375L133.669 446.205L114.019 453.76C113.896 453.822 113.772 453.823 113.71 453.823L54.3108 453.659L31.8165 461.596C31.693 461.658 31.6311 461.658 31.5073 461.659L-29.6246 461.439L-55.2108 469.881C-55.3346 469.882 -55.3962 469.944 -55.52 469.944L-118.508 469.731L-147.619 478.68C-147.681 478.681 -147.805 478.681 -147.867 478.743L-212.835 478.537L-245.842 488.057C-245.904 488.057 -246.027 488.119 -246.089 488.12L-313.161 487.921L-318.972 489.488C-319.095 489.488 -319.157 489.488 -319.219 489.489Z" fill="#EBEFF6"/>
<path d="M-313.347 487.859L-319.287 487.818C-319.782 487.82 -320.216 487.388 -320.218 486.893C-320.22 486.398 -319.788 485.964 -319.293 485.962L-313.477 486.004L-278.366 476.476C-278.304 476.476 -278.181 476.414 -278.119 476.414L-213.151 476.62L-182.06 467.663C-181.998 467.663 -181.874 467.663 -181.812 467.601L-118.762 467.814L-91.3199 459.365C-91.258 459.365 -91.1345 459.302 -91.0726 459.302L-29.9407 459.522L-5.7139 451.579C-5.59015 451.579 -5.5285 451.517 -5.40475 451.516L53.9947 451.742L75.253 444.243C75.3766 444.181 75.4384 444.181 75.5622 444.18L133.291 444.35L151.89 437.231C152.014 437.169 152.075 437.169 152.199 437.169L264.687 437.518L279.389 430.785C279.883 430.597 280.379 430.781 280.628 431.213C280.815 431.708 280.632 432.203 280.199 432.452L265.311 439.249C265.188 439.311 265.064 439.311 264.94 439.312L152.391 438.962L133.792 446.081C133.668 446.143 133.545 446.143 133.483 446.144L75.7541 445.974L54.4957 453.473C54.3722 453.535 54.3103 453.535 54.1866 453.536L-5.21289 453.31L-29.4396 461.253C-29.5634 461.253 -29.625 461.315 -29.7488 461.316L-90.9426 461.096L-118.385 469.545C-118.447 469.545 -118.57 469.607 -118.632 469.608L-181.682 469.395L-212.711 478.475C-212.773 478.475 -212.897 478.475 -212.958 478.537L-277.988 478.331L-313.099 487.859C-313.161 487.859 -313.223 487.859 -313.347 487.859Z" fill="#EBEFF6"/>
<path d="M2053.82 719.79C2053.7 719.79 2053.57 719.791 2053.45 719.729L2034.3 711.072L-316.051 705.912L-319.881 707.657C-320.375 707.845 -320.871 707.661 -321.12 707.229C-321.307 706.734 -321.123 706.239 -320.691 705.99L-316.675 704.181C-316.552 704.119 -316.366 704.118 -316.304 704.118L2034.48 709.215C2034.6 709.215 2034.73 709.214 2034.85 709.276L2054.12 717.995C2054.62 718.178 2054.81 718.735 2054.56 719.23C2054.5 719.54 2054.19 719.789 2053.82 719.79Z" fill="#EBEFF6"/>
<path d="M2053.85 711.127L2034.49 711.071C2034.36 711.072 2034.24 711.072 2034.11 711.011L1552.97 493.719L156.341 489.314L-315.865 705.849C-315.989 705.911 -316.174 705.912 -316.236 705.912L-320.196 705.926C-320.691 705.928 -321.126 705.496 -321.127 705.001C-321.129 704.506 -320.698 704.072 -320.203 704.07L-316.428 704.057L155.716 487.521C155.84 487.459 155.963 487.459 156.087 487.458L1553.15 491.801C1553.27 491.8 1553.39 491.8 1553.52 491.861L2034.66 709.153L2053.78 709.21C2054.28 709.208 2054.71 709.639 2054.71 710.134C2054.78 710.691 2054.35 711.126 2053.85 711.127Z" fill="#EBEFF6"/>
<path d="M-247.438 509.347C-247.5 509.347 -247.5 509.347 -247.438 509.347L-318.965 509.102L-319.027 509.102C-319.521 509.227 -320.017 508.982 -320.205 508.487C-320.33 507.993 -320.084 507.497 -319.59 507.31L-319.405 507.247C-319.343 507.247 -319.219 507.184 -319.157 507.184L-247.631 507.43L-212.4 496.602C-212.339 496.602 -212.215 496.54 -212.153 496.54L-143.04 496.732L-112.262 486.601C-112.138 486.6 -112.076 486.538 -111.953 486.538L-45.0666 486.737L-18.1848 477.239C-18.0612 477.176 -17.9994 477.176 -17.8756 477.176L46.9068 477.383L70.2639 468.453C70.3874 468.391 70.449 468.329 70.573 468.39L133.437 468.604L153.579 460.181C153.702 460.118 153.826 460.118 153.95 460.118L214.958 460.338L232.255 452.419C232.378 452.357 232.502 452.357 232.626 452.356L291.84 452.521L306.601 445.044C306.725 444.982 306.848 444.92 307.034 444.919L364.577 445.089L376.989 437.993C377.112 437.93 377.236 437.868 377.422 437.867L489.6 438.218L498.424 431.567C498.857 431.256 499.414 431.316 499.724 431.748C500.035 432.18 499.975 432.737 499.543 433.048L490.472 439.886C490.287 440.01 490.101 440.073 489.916 440.073L377.676 439.723L365.264 446.82C365.14 446.882 364.955 446.944 364.831 446.945L307.226 446.775L292.464 454.251C292.341 454.313 292.217 454.376 292.032 454.376L232.818 454.212L215.521 462.13C215.398 462.192 215.336 462.193 215.15 462.193L154.142 461.973L134.063 470.458C133.939 470.52 133.815 470.521 133.692 470.521L70.8272 470.307L47.4702 479.237C47.3466 479.299 47.2849 479.299 47.1611 479.3L-17.6833 479.093L-44.5031 488.653C-44.6266 488.716 -44.6885 488.716 -44.8122 488.716L-111.698 488.517L-142.538 498.648C-142.662 498.648 -142.724 498.649 -142.847 498.711L-211.961 498.519L-247.191 509.346C-247.315 509.347 -247.376 509.347 -247.438 509.347Z" fill="#EBEFF6"/>
<path d="M-319.151 509.102L-319.398 509.103C-319.893 509.105 -320.328 508.673 -320.329 508.178C-320.331 507.683 -319.9 507.249 -319.405 507.247L-319.343 507.247L-281.823 496.412C-281.761 496.411 -281.7 496.349 -281.576 496.349L-212.401 496.541L-179.395 486.402C-179.334 486.402 -179.21 486.339 -179.148 486.339L-112.2 486.539L-83.2766 477.033C-83.1528 477.032 -83.0912 476.97 -82.9674 476.97L-18.1231 477.177L7.15201 468.24C7.27554 468.178 7.3374 468.178 7.46115 468.177L70.3255 468.391L92.3231 459.961C92.4467 459.899 92.5085 459.899 92.6323 459.898L153.64 460.119L172.67 452.194C172.793 452.132 172.917 452.131 173.041 452.131L232.316 452.295L248.687 444.813C248.81 444.751 248.934 444.751 249.058 444.75L306.663 444.92L334.086 431.027C334.21 430.965 334.395 430.902 334.519 430.902L444.16 431.261C444.655 431.26 445.09 431.691 445.091 432.186C445.093 432.681 444.662 433.116 444.167 433.118L334.773 432.757L307.349 446.65C307.226 446.713 307.102 446.713 306.917 446.776L249.312 446.606L232.941 454.088C232.818 454.15 232.632 454.151 232.57 454.151L173.295 453.986L154.265 461.911C154.142 461.973 154.018 461.974 153.894 461.974L92.8243 461.754L70.8268 470.184C70.7033 470.246 70.6414 470.246 70.5176 470.247L7.5914 470.033L-17.6837 478.969C-17.8073 479.032 -17.8691 479.032 -17.9929 479.032L-82.8372 478.826L-111.761 488.331C-111.885 488.332 -111.946 488.332 -112.07 488.394L-179.018 488.195L-212.023 498.334C-212.085 498.334 -212.209 498.396 -212.27 498.396L-281.446 498.205L-318.965 509.04C-318.965 509.102 -319.027 509.102 -319.151 509.102Z" fill="#EBEFF6"/>
<g opacity="0.8">
<g opacity="0.2" filter="url(#filter0_f_423_1473)">
<path d="M1476.8 670.765L937.287 670.765L937.287 1289.64L2016.31 1289.64L2016.31 670.765L1476.8 670.765Z" fill="#3A95FF" fill-opacity="0.31"/>
</g>
<g opacity="0.2" filter="url(#filter1_f_423_1473)">
<ellipse cx="1476.8" cy="768.139" rx="488.989" ry="117.571" fill="#1E6BFF"/>
</g>
</g>
<g opacity="0.5">
<g opacity="0.2" filter="url(#filter2_f_423_1473)">
<path d="M349.589 621.752L5.54102 621.752L5.54102 1016.41L693.636 1016.41L693.636 621.752L349.589 621.752Z" fill="#3A95FF" fill-opacity="0.31"/>
</g>
<g opacity="0.2" filter="url(#filter3_f_423_1473)">
<ellipse cx="349.589" cy="683.847" rx="311.829" ry="74.9753" fill="#1E6BFF"/>
</g>
</g>
<rect x="-43.1504" y="431.203" width="1814.8" height="195.821" transform="rotate(-0.2 -43.1504 431.203)" fill="url(#paint0_linear_423_1473)"/>
<rect width="1814.8" height="390.7" transform="matrix(0.999994 0.00349065 0.00349065 -0.999994 -43.2207 1021.46)" fill="url(#paint1_linear_423_1473)"/>
</g>
<g filter="url(#filter4_f_423_1473)">
<ellipse cx="1365.84" cy="459.5" rx="365.156" ry="214.5" fill="#E3EFFF"/>
</g>
<g filter="url(#filter5_f_423_1473)">
<ellipse cx="353.793" cy="625" rx="207.688" ry="122" fill="#FFECEF"/>
</g>
<g filter="url(#filter6_f_423_1473)">
<ellipse cx="1046.65" cy="104" rx="207.688" ry="122" fill="#EEF9F5"/>
</g>
<g filter="url(#filter7_f_423_1473)">
<ellipse cx="228.669" cy="-177.5" rx="230.669" ry="135.5" fill="#C3DDFF"/>
</g>
</g>
<defs>
<filter id="filter0_f_423_1473" x="630.569" y="364.046" width="1692.46" height="1232.31" filterUnits="userSpaceOnUse" color-interpolation-filters="sRGB">
<feFlood flood-opacity="0" result="BackgroundImageFix"/>
<feBlend mode="normal" in="SourceGraphic" in2="BackgroundImageFix" result="shape"/>
<feGaussianBlur stdDeviation="153.359" result="effect1_foregroundBlur_423_1473"/>
</filter>
<filter id="filter1_f_423_1473" x="681.09" y="343.85" width="1591.41" height="848.579" filterUnits="userSpaceOnUse" color-interpolation-filters="sRGB">
<feFlood flood-opacity="0" result="BackgroundImageFix"/>
<feBlend mode="normal" in="SourceGraphic" in2="BackgroundImageFix" result="shape"/>
<feGaussianBlur stdDeviation="153.359" result="effect1_foregroundBlur_423_1473"/>
</filter>
<filter id="filter2_f_423_1473" x="-190.054" y="426.157" width="1079.29" height="785.845" filterUnits="userSpaceOnUse" color-interpolation-filters="sRGB">
<feFlood flood-opacity="0" result="BackgroundImageFix"/>
<feBlend mode="normal" in="SourceGraphic" in2="BackgroundImageFix" result="shape"/>
<feGaussianBlur stdDeviation="97.7975" result="effect1_foregroundBlur_423_1473"/>
</filter>
<filter id="filter3_f_423_1473" x="-157.835" y="413.277" width="1014.85" height="541.141" filterUnits="userSpaceOnUse" color-interpolation-filters="sRGB">
<feFlood flood-opacity="0" result="BackgroundImageFix"/>
<feBlend mode="normal" in="SourceGraphic" in2="BackgroundImageFix" result="shape"/>
<feGaussianBlur stdDeviation="97.7975" result="effect1_foregroundBlur_423_1473"/>
</filter>
<filter id="filter4_f_423_1473" x="641.688" y="-114" width="1448.31" height="1147" filterUnits="userSpaceOnUse" color-interpolation-filters="sRGB">
<feFlood flood-opacity="0" result="BackgroundImageFix"/>
<feBlend mode="normal" in="SourceGraphic" in2="BackgroundImageFix" result="shape"/>
<feGaussianBlur stdDeviation="179.5" result="effect1_foregroundBlur_423_1473"/>
</filter>
<filter id="filter5_f_423_1473" x="-212.895" y="144" width="1133.38" height="962" filterUnits="userSpaceOnUse" color-interpolation-filters="sRGB">
<feFlood flood-opacity="0" result="BackgroundImageFix"/>
<feBlend mode="normal" in="SourceGraphic" in2="BackgroundImageFix" result="shape"/>
<feGaussianBlur stdDeviation="179.5" result="effect1_foregroundBlur_423_1473"/>
</filter>
<filter id="filter6_f_423_1473" x="479.965" y="-377" width="1133.38" height="962" filterUnits="userSpaceOnUse" color-interpolation-filters="sRGB">
<feFlood flood-opacity="0" result="BackgroundImageFix"/>
<feBlend mode="normal" in="SourceGraphic" in2="BackgroundImageFix" result="shape"/>
<feGaussianBlur stdDeviation="179.5" result="effect1_foregroundBlur_423_1473"/>
</filter>
<filter id="filter7_f_423_1473" x="-361" y="-672" width="1179.34" height="989" filterUnits="userSpaceOnUse" color-interpolation-filters="sRGB">
<feFlood flood-opacity="0" result="BackgroundImageFix"/>
<feBlend mode="normal" in="SourceGraphic" in2="BackgroundImageFix" result="shape"/>
<feGaussianBlur stdDeviation="179.5" result="effect1_foregroundBlur_423_1473"/>
</filter>
<linearGradient id="paint0_linear_423_1473" x1="865.312" y1="444.066" x2="864.928" y2="627.026" gradientUnits="userSpaceOnUse">
<stop stop-color="white"/>
<stop offset="1" stop-color="#F8FBFF" stop-opacity="0"/>
</linearGradient>
<linearGradient id="paint1_linear_423_1473" x1="908.462" y1="25.6641" x2="906.933" y2="390.698" gradientUnits="userSpaceOnUse">
<stop stop-color="#F8FBFF"/>
<stop offset="1" stop-color="#F8FBFF" stop-opacity="0"/>
</linearGradient>
<clipPath id="clip0_423_1473">
<path d="M78 698C33.8172 698 -2 662.183 -2 618L-2.00003 -2L1726 -2.00008L1726 618C1726 662.183 1690.18 698 1646 698L78 698Z" fill="white"/>
</clipPath>
</defs>
</svg>
